<svg xmlns="http://www.w3.org/2000/svg" id="Capa_1" data-name="Capa 1" viewBox="0 0 1395 1395"><defs><style>.cls-1{fill:none;}.cls-2{fill:#ececec;}.cls-3{fill:#c8c8c8;}.cls-18,.cls-4{fill:#fff;}.cls-5{fill:#dcdcdc;}.cls-6{fill:#a8a8a8;}.cls-15,.cls-7{fill:#f5f5f5;}.cls-8{fill:#e0e0e0;}.cls-9{fill:#455a64;}.cls-10{fill:#263238;}.cls-11{fill:#1f90ff;}.cls-12{fill:#6d6e70;}.cls-13,.cls-21{opacity:0.3;}.cls-14{fill:#fafafa;}.cls-14,.cls-15{stroke:#000;stroke-miterlimit:10;stroke-width:0.5px;}.cls-16{fill:#e6e6e6;}.cls-17{fill:#007cff;}.cls-18{opacity:0.8;}.cls-18,.cls-20,.cls-21{isolation:isolate;}.cls-19{fill:#1a2e35;}.cls-20{opacity:0.2;}</style></defs><title>Panas</title><rect class="cls-1" x="1240.47" y="827.38" width="494" height="451"></rect><rect class="cls-2" x="96.92" y="604.81" width="678.9" height="678.9"></rect><rect class="cls-3" x="129.05" y="641.99" width="614.64" height="603.85"></rect><rect class="cls-2" x="129.05" y="1094.59" width="614.64" height="21.57"></rect><rect class="cls-2" x="129.05" y="934.39" width="614.64" height="21.57"></rect><rect class="cls-2" x="129.05" y="773.96" width="614.64" height="21.34"></rect><path class="cls-4" d="M197,774H151.32a7.16,7.16,0,0,1-7.12-7.12V721.17a7.15,7.15,0,0,1,7.12-7.11H197a7.15,7.15,0,0,1,7.12,7.11v45.67A7.16,7.16,0,0,1,197,774Z"></path><path class="cls-4" d="M258.73,774H213.06a7.15,7.15,0,0,1-7.12-7.12V721.17a7.15,7.15,0,0,1,7.12-7.11h45.67a7.14,7.14,0,0,1,7.11,7.11v45.67A7.15,7.15,0,0,1,258.73,774Z"></path><path class="cls-4" d="M197,712.68H151.32a7.16,7.16,0,0,1-7.12-7.12V659.89a7.16,7.16,0,0,1,7.12-7.12H197a7.16,7.16,0,0,1,7.12,7.12v45.9A7,7,0,0,1,197,712.68Z"></path><path class="cls-4" d="M258.73,712.68H213.06a7.16,7.16,0,0,1-7.12-7.12V659.89a7.16,7.16,0,0,1,7.12-7.12h45.67a7.15,7.15,0,0,1,7.11,7.12v45.9A7,7,0,0,1,258.73,712.68Z"></path><path class="cls-4" d="M320.47,774H274.8a7.15,7.15,0,0,1-7.12-7.12V721.17a7.15,7.15,0,0,1,7.12-7.11h45.67a7.14,7.14,0,0,1,7.11,7.11v45.67A7.15,7.15,0,0,1,320.47,774Z"></path><path class="cls-4" d="M320.47,712.68H274.8a7.16,7.16,0,0,1-7.12-7.12V659.89a7.16,7.16,0,0,1,7.12-7.12h45.67a7.15,7.15,0,0,1,7.11,7.12v45.9A7,7,0,0,1,320.47,712.68Z"></path><rect class="cls-5" x="140.3" y="696.61" width="190.04" height="47.51"></rect><path class="cls-4" d="M392.77,774H347.09a7.15,7.15,0,0,1-7.11-7.12V721.17a7.14,7.14,0,0,1,7.11-7.11h45.68a7.14,7.14,0,0,1,7.11,7.11v45.67A7.3,7.3,0,0,1,392.77,774Z"></path><path class="cls-4" d="M454.51,774H408.83a7.15,7.15,0,0,1-7.11-7.12V721.17a7.14,7.14,0,0,1,7.11-7.11h45.68a7.14,7.14,0,0,1,7.11,7.11v45.67A7.15,7.15,0,0,1,454.51,774Z"></path><path class="cls-4" d="M392.77,712.68H347.09a7.15,7.15,0,0,1-7.11-7.12V659.89a7.15,7.15,0,0,1,7.11-7.12h45.68a7.15,7.15,0,0,1,7.11,7.12v45.9A7.11,7.11,0,0,1,392.77,712.68Z"></path><path class="cls-4" d="M454.51,712.68H408.83a7.15,7.15,0,0,1-7.11-7.12V659.89a7.15,7.15,0,0,1,7.11-7.12h45.68a7.15,7.15,0,0,1,7.11,7.12v45.9A7,7,0,0,1,454.51,712.68Z"></path><path class="cls-4" d="M516.24,774H470.57a7.15,7.15,0,0,1-7.11-7.12V721.17a7.14,7.14,0,0,1,7.11-7.11h45.67a7.15,7.15,0,0,1,7.12,7.11v45.67A7.15,7.15,0,0,1,516.24,774Z"></path><path class="cls-4" d="M516.24,712.68H470.57a7.15,7.15,0,0,1-7.11-7.12V659.89a7.15,7.15,0,0,1,7.11-7.12h45.67a7.16,7.16,0,0,1,7.12,7.12v45.9A7,7,0,0,1,516.24,712.68Z"></path><rect class="cls-2" x="335.85" y="696.61" width="190.04" height="47.51"></rect><path class="cls-4" d="M588.31,774H542.64a7.16,7.16,0,0,1-7.12-7.12V721.17a7.15,7.15,0,0,1,7.12-7.11h45.67a7.15,7.15,0,0,1,7.12,7.11v45.67A7.16,7.16,0,0,1,588.31,774Z"></path><path class="cls-4" d="M650.05,774H604.38a7.16,7.16,0,0,1-7.12-7.12V721.17a7.15,7.15,0,0,1,7.12-7.11h45.67a7.15,7.15,0,0,1,7.12,7.11v45.67A7.16,7.16,0,0,1,650.05,774Z"></path><path class="cls-4" d="M588.31,712.68H542.64a7.16,7.16,0,0,1-7.12-7.12V659.89a7.16,7.16,0,0,1,7.12-7.12h45.67a7.16,7.16,0,0,1,7.12,7.12v45.9A7,7,0,0,1,588.31,712.68Z"></path><path class="cls-4" d="M650.05,712.68H604.38a7.16,7.16,0,0,1-7.12-7.12V659.89a7.16,7.16,0,0,1,7.12-7.12h45.67a7.16,7.16,0,0,1,7.12,7.12v45.9A7,7,0,0,1,650.05,712.68Z"></path><path class="cls-4" d="M711.79,774H666.12a7.16,7.16,0,0,1-7.12-7.12V721.17a7.15,7.15,0,0,1,7.12-7.11h45.67a7.15,7.15,0,0,1,7.12,7.11v45.67A7.16,7.16,0,0,1,711.79,774Z"></path><path class="cls-4" d="M711.79,712.68H666.12a7.16,7.16,0,0,1-7.12-7.12V659.89a7.16,7.16,0,0,1,7.12-7.12h45.67a7.16,7.16,0,0,1,7.12,7.12v45.9A7,7,0,0,1,711.79,712.68Z"></path><rect class="cls-5" x="531.62" y="696.61" width="190.04" height="47.51"></rect><path class="cls-5" d="M191.94,902v32.36H140.3V902c0-14.69,8-23.87,8-28.46s-6-11.71-6-20.89c0-8.95,11.7-16.52,11.7-23.18V810.68h24.1V829.5c0,6.66,11.71,14.23,11.71,23.18s-6,16.3-6,20.89S191.94,887.11,191.94,902Z"></path><rect class="cls-2" x="150.4" y="804.02" width="31.44" height="10.56"></rect><rect class="cls-4" x="140.3" y="903.86" width="51.64" height="18.82"></rect><path class="cls-5" d="M249.32,902v32.36H197.68V902c0-14.69,8-23.87,8-28.46s-6-11.71-6-20.89c0-8.95,11.71-16.52,11.71-23.18V810.68h24.1V829.5c0,6.66,11.7,14.23,11.7,23.18s-6,16.3-6,20.89S249.32,887.11,249.32,902Z"></path><rect class="cls-2" x="207.78" y="804.02" width="31.44" height="10.56"></rect><rect class="cls-4" x="197.68" y="903.86" width="51.64" height="18.82"></rect><path class="cls-5" d="M306.93,902v32.36H255.29V902c0-14.69,8-23.87,8-28.46s-6-11.71-6-20.89c0-8.95,11.71-16.52,11.71-23.18V810.68h24.1V829.5c0,6.66,11.7,14.23,11.7,23.18s-6,16.3-6,20.89S306.93,887.11,306.93,902Z"></path><rect class="cls-2" x="265.39" y="804.02" width="31.44" height="10.56"></rect><rect class="cls-4" x="255.29" y="903.86" width="51.64" height="18.82"></rect><path class="cls-5" d="M364.31,902v32.36H312.67V902c0-14.69,8-23.87,8-28.46s-6-11.71-6-20.89c0-8.95,11.71-16.52,11.71-23.18V810.68h24.1V829.5c0,6.66,11.7,14.23,11.7,23.18s-6,16.3-6,20.89S364.31,887.11,364.31,902Z"></path><rect class="cls-2" x="322.76" y="804.02" width="31.44" height="10.56"></rect><rect class="cls-4" x="312.67" y="903.86" width="51.64" height="18.82"></rect><path class="cls-5" d="M421.91,902v32.36H370.27V902c0-14.69,8-23.87,8-28.46s-6-11.71-6-20.89c0-8.95,11.7-16.52,11.7-23.18V810.68h24.1V829.5c0,6.66,11.71,14.23,11.71,23.18s-6,16.3-6,20.89S421.91,887.11,421.91,902Z"></path><rect class="cls-2" x="380.37" y="804.02" width="31.44" height="10.56"></rect><rect class="cls-4" x="370.04" y="903.86" width="51.64" height="18.82"></rect><path class="cls-4" d="M509.13,838.68v82.63a10.28,10.28,0,0,1-10.33,10.32H451.29A10.28,10.28,0,0,1,441,921.31V838.68a10.29,10.29,0,0,1,10.33-10.33h.23V823.3h46.82v5.05h.23A10.34,10.34,0,0,1,509.13,838.68Z"></path><path class="cls-6" d="M495.13,927.5h-40.4a9.69,9.69,0,0,1-9.63-9.64V853.6a9.69,9.69,0,0,1,9.63-9.64h40.4a9.7,9.7,0,0,1,9.64,9.64v64.26A9.55,9.55,0,0,1,495.13,927.5Z"></path><rect class="cls-5" x="444.64" y="813.21" width="60.36" height="9.87"></rect><rect class="cls-2" x="457.26" y="877.47" width="35.35" height="35.8"></rect><path class="cls-4" d="M173.35,1041.8v47a6.07,6.07,0,0,1-6,6H140.3a6.08,6.08,0,0,1-6-6v-47a6.09,6.09,0,0,1,6-6h.23v-2.75h26.62v2.75h.23A5.93,5.93,0,0,1,173.35,1041.8Z"></path><path class="cls-2" d="M166.92,1092.29H140.76a4,4,0,0,1-3.9-3.9v-39.7a4,4,0,0,1,3.9-3.9h26.16a4,4,0,0,1,3.91,3.9v39.7A4,4,0,0,1,166.92,1092.29Z"></path><rect class="cls-6" x="136.63" y="1027.11" width="34.43" height="5.74"></rect><path class="cls-4" d="M173.12,974.32v47a6.07,6.07,0,0,1-6,6H140.07a6.08,6.08,0,0,1-6-6v-47a6.08,6.08,0,0,1,6-6h.23V965.6h26.62v2.76h.23A6.07,6.07,0,0,1,173.12,974.32Z"></path><path class="cls-2" d="M166.69,1024.82H140.53a4,4,0,0,1-3.9-3.9V981.21a4,4,0,0,1,3.9-3.9h26.16a4,4,0,0,1,3.91,3.9v39.71A3.74,3.74,0,0,1,166.69,1024.82Z"></path><rect class="cls-6" x="136.4" y="959.86" width="34.43" height="5.74"></rect><path class="cls-4" d="M214.43,1041.8v47a6.07,6.07,0,0,1-6,6H181.38a6.07,6.07,0,0,1-6-6v-47a6.08,6.08,0,0,1,6-6h.23v-2.75h26.63v2.75h.23A5.93,5.93,0,0,1,214.43,1041.8Z"></path><path class="cls-2" d="M208,1092.29H181.84a4,4,0,0,1-3.9-3.9v-39.7a4,4,0,0,1,3.9-3.9H208a4,4,0,0,1,3.9,3.9v39.7A4,4,0,0,1,208,1092.29Z"></path><rect class="cls-6" x="177.71" y="1027.11" width="34.43" height="5.74"></rect><path class="cls-4" d="M214.2,974.32v47a6.07,6.07,0,0,1-6,6H181.38a6.07,6.07,0,0,1-6-6v-47a6.07,6.07,0,0,1,6-6h0V965.6H208v2.76h.23A6.07,6.07,0,0,1,214.2,974.32Z"></path><path class="cls-2" d="M207.78,1024.82H181.61a4,4,0,0,1-3.9-3.9V981.21a4,4,0,0,1,3.9-3.9h26.17a4,4,0,0,1,3.9,3.9v39.71A3.74,3.74,0,0,1,207.78,1024.82Z"></path><rect class="cls-6" x="177.48" y="959.86" width="34.43" height="5.74"></rect><path class="cls-4" d="M255.52,1041.8v47a6.08,6.08,0,0,1-6,6H222.47a6.07,6.07,0,0,1-6-6v-47a6.08,6.08,0,0,1,6-6h.23v-2.75h26.62v2.75h.23A5.93,5.93,0,0,1,255.52,1041.8Z"></path><path class="cls-2" d="M249.09,1092.29H222.93a4,4,0,0,1-3.91-3.9v-39.7a4,4,0,0,1,3.91-3.9h26.16a4,4,0,0,1,3.9,3.9v39.7A3.86,3.86,0,0,1,249.09,1092.29Z"></path><rect class="cls-6" x="218.79" y="1027.11" width="34.43" height="5.74"></rect><path class="cls-4" d="M255.29,974.32v47a6.08,6.08,0,0,1-6,6H222.47a6.07,6.07,0,0,1-6-6v-47a6.07,6.07,0,0,1,6-6h.23V965.6h26.62v2.76h.23A6,6,0,0,1,255.29,974.32Z"></path><path class="cls-2" d="M249.09,1024.82H222.7a4,4,0,0,1-3.91-3.9V981.21a4,4,0,0,1,3.91-3.9h26.16a4,4,0,0,1,3.9,3.9v39.71A3.68,3.68,0,0,1,249.09,1024.82Z"></path><rect class="cls-6" x="218.56" y="959.86" width="34.43" height="5.74"></rect><path class="cls-4" d="M296.6,1041.8v47a6.07,6.07,0,0,1-6,6H263.55a6.08,6.08,0,0,1-6-6v-47a6.09,6.09,0,0,1,6-6h.23v-2.75H290.4v2.75h.23A5.93,5.93,0,0,1,296.6,1041.8Z"></path><path class="cls-2" d="M290.17,1092.29H264a4,4,0,0,1-3.9-3.9v-39.7a4,4,0,0,1,3.9-3.9h26.16a4,4,0,0,1,3.9,3.9v39.7A3.86,3.86,0,0,1,290.17,1092.29Z"></path><rect class="cls-6" x="259.88" y="1027.11" width="34.43" height="5.74"></rect><path class="cls-4" d="M296.37,974.32v47a6.07,6.07,0,0,1-6,6H263.32a6.08,6.08,0,0,1-6-6v-47a6.08,6.08,0,0,1,6-6h.23V965.6h26.62v2.76h.23A5.92,5.92,0,0,1,296.37,974.32Z"></path><path class="cls-2" d="M290.17,1024.82H264a4,4,0,0,1-3.9-3.9V981.21a4,4,0,0,1,3.9-3.9h26.16a4,4,0,0,1,3.9,3.9v39.71A4,4,0,0,1,290.17,1024.82Z"></path><rect class="cls-6" x="259.65" y="959.86" width="34.43" height="5.74"></rect><path class="cls-4" d="M337.68,1041.8v47a6.07,6.07,0,0,1-6,6H304.63a6.07,6.07,0,0,1-6-6v-47a6.08,6.08,0,0,1,6-6h.23v-2.75h26.63v2.75h.23A5.93,5.93,0,0,1,337.68,1041.8Z"></path><path class="cls-2" d="M331.26,1092.29H305.09a4,4,0,0,1-3.9-3.9v-39.7a4,4,0,0,1,3.9-3.9h26.17a4,4,0,0,1,3.9,3.9v39.7A3.87,3.87,0,0,1,331.26,1092.29Z"></path><rect class="cls-6" x="300.96" y="1027.11" width="34.43" height="5.74"></rect><path class="cls-4" d="M337.45,974.32v47a6.07,6.07,0,0,1-6,6H304.4a6.07,6.07,0,0,1-6-6v-47a6.07,6.07,0,0,1,6-6h.23V965.6h26.63v2.76h.23A5.92,5.92,0,0,1,337.45,974.32Z"></path><path class="cls-2" d="M331.26,1024.82H305.09a4,4,0,0,1-3.9-3.9V981.21a4,4,0,0,1,3.9-3.9h26.17a4,4,0,0,1,3.9,3.9v39.71A4,4,0,0,1,331.26,1024.82Z"></path><rect class="cls-6" x="300.73" y="959.86" width="34.43" height="5.74"></rect><path class="cls-4" d="M378.77,1041.8v47a6.08,6.08,0,0,1-6,6H345.72a6.07,6.07,0,0,1-6-6v-47a6.08,6.08,0,0,1,6-6H346v-2.75h26.62v2.75h.23A5.8,5.8,0,0,1,378.77,1041.8Z"></path><path class="cls-2" d="M372.57,1092.29H346.4a4,4,0,0,1-3.9-3.9v-39.7a4,4,0,0,1,3.9-3.9h26.17a4,4,0,0,1,3.9,3.9v39.7A4.19,4.19,0,0,1,372.57,1092.29Z"></path><rect class="cls-6" x="342.04" y="1027.11" width="34.43" height="5.74"></rect><path class="cls-4" d="M378.54,974.32v47a6.08,6.08,0,0,1-6,6H345.49a6.07,6.07,0,0,1-6-6v-47a6.07,6.07,0,0,1,6-6h.23V965.6h26.62v2.76h.23A5.93,5.93,0,0,1,378.54,974.32Z"></path><path class="cls-2" d="M372.34,1024.82H346.17a4,4,0,0,1-3.9-3.9V981.21a4,4,0,0,1,3.9-3.9h26.17a4,4,0,0,1,3.9,3.9v39.71A3.87,3.87,0,0,1,372.34,1024.82Z"></path><rect class="cls-6" x="342.04" y="959.86" width="34.43" height="5.74"></rect><path class="cls-4" d="M419.85,1041.8v47a6.08,6.08,0,0,1-6,6H386.8a6.08,6.08,0,0,1-6-6v-47a6.09,6.09,0,0,1,6-6H387v-2.75h26.62v2.75h.23A5.8,5.8,0,0,1,419.85,1041.8Z"></path><path class="cls-2" d="M413.65,1092.29H387.49a4,4,0,0,1-3.9-3.9v-39.7a4,4,0,0,1,3.9-3.9h26.16a4,4,0,0,1,3.9,3.9v39.7A4.18,4.18,0,0,1,413.65,1092.29Z"></path><rect class="cls-6" x="383.13" y="1027.11" width="34.43" height="5.74"></rect><path class="cls-4" d="M419.62,974.32v47a6.07,6.07,0,0,1-6,6H386.57a6.08,6.08,0,0,1-6-6v-47a6.08,6.08,0,0,1,6-6h.23V965.6h26.62v2.76h.23A5.93,5.93,0,0,1,419.62,974.32Z"></path><path class="cls-2" d="M413.42,1024.82H387.26a4,4,0,0,1-3.9-3.9V981.21a4,4,0,0,1,3.9-3.9h26.16a4,4,0,0,1,3.9,3.9v39.71A3.87,3.87,0,0,1,413.42,1024.82Z"></path><rect class="cls-6" x="383.13" y="959.86" width="34.43" height="5.74"></rect><path class="cls-4" d="M584.87,838.68v82.63a10.28,10.28,0,0,1-10.33,10.32H527a10.28,10.28,0,0,1-10.33-10.32V838.68A10.29,10.29,0,0,1,527,828.35h.23V823.3h46.82v5.05h.23A10.48,10.48,0,0,1,584.87,838.68Z"></path><path class="cls-6" d="M570.87,927.5h-40.4a9.69,9.69,0,0,1-9.63-9.64V853.6a9.69,9.69,0,0,1,9.63-9.64h40.4a9.7,9.7,0,0,1,9.64,9.64v64.26A9.7,9.7,0,0,1,570.87,927.5Z"></path><rect class="cls-5" x="520.38" y="813.21" width="60.36" height="9.87"></rect><rect class="cls-2" x="533" y="877.47" width="35.35" height="35.8"></rect><path class="cls-4" d="M660.38,838.68v82.63a10.28,10.28,0,0,1-10.33,10.32H602.54a10.28,10.28,0,0,1-10.33-10.32V838.68a10.29,10.29,0,0,1,10.33-10.33h.23V823.3h46.82v5.05h.23A10.34,10.34,0,0,1,660.38,838.68Z"></path><path class="cls-6" d="M646.38,927.5H606a9.69,9.69,0,0,1-9.63-9.64V853.6A9.69,9.69,0,0,1,606,844h40.4A9.7,9.7,0,0,1,656,853.6v64.26A9.55,9.55,0,0,1,646.38,927.5Z"></path><rect class="cls-5" x="595.89" y="813.21" width="60.36" height="9.87"></rect><rect class="cls-2" x="608.51" y="877.47" width="35.35" height="35.8"></rect><path class="cls-4" d="M736.12,838.68v82.63a10.28,10.28,0,0,1-10.33,10.32H678.28A10.28,10.28,0,0,1,668,921.31V838.68a10.29,10.29,0,0,1,10.33-10.33h.23V823.3h46.82v5.05h.23A10.48,10.48,0,0,1,736.12,838.68Z"></path><path class="cls-6" d="M722.12,927.5h-40.4a9.7,9.7,0,0,1-9.64-9.64V853.6a9.7,9.7,0,0,1,9.64-9.64h40.4a9.7,9.7,0,0,1,9.64,9.64v64.26A9.7,9.7,0,0,1,722.12,927.5Z"></path><rect class="cls-5" x="671.63" y="813.21" width="60.36" height="9.87"></rect><rect class="cls-2" x="684.25" y="877.47" width="35.35" height="35.8"></rect><rect class="cls-5" x="427.19" y="962.62" width="93.64" height="131.97"></rect><rect class="cls-6" x="440.51" y="1001.18" width="67.02" height="5.74"></rect><rect class="cls-6" x="447.39" y="1012.19" width="53.25" height="5.74"></rect><rect class="cls-2" x="447.39" y="980.98" width="53.25" height="5.74"></rect><ellipse class="cls-4" cx="474.01" cy="1054.88" rx="36.49" ry="20.2"></ellipse><rect class="cls-5" x="530.7" y="962.62" width="93.64" height="131.97"></rect><rect class="cls-6" x="544.02" y="1001.18" width="67.02" height="5.74"></rect><rect class="cls-6" x="550.9" y="1012.19" width="53.25" height="5.74"></rect><rect class="cls-2" x="550.9" y="980.98" width="53.25" height="5.74"></rect><ellipse class="cls-4" cx="577.53" cy="1054.88" rx="36.49" ry="20.2"></ellipse><rect class="cls-5" x="634.22" y="962.62" width="93.64" height="131.97"></rect><rect class="cls-6" x="647.53" y="1001.18" width="67.02" height="5.74"></rect><rect class="cls-6" x="654.41" y="1012.19" width="53.25" height="5.74"></rect><rect class="cls-2" x="654.41" y="980.98" width="53.25" height="5.74"></rect><ellipse class="cls-4" cx="681.04" cy="1054.88" rx="36.49" ry="20.2"></ellipse><rect class="cls-2" x="144.2" y="1128.56" width="121.18" height="117.05"></rect><rect class="cls-4" x="161.87" y="1190.07" width="85.84" height="44.3"></rect><rect class="cls-5" x="139.61" y="1128.56" width="130.36" height="18.13"></rect><rect class="cls-2" x="281.68" y="1128.56" width="121.18" height="117.05"></rect><rect class="cls-4" x="299.35" y="1190.07" width="85.84" height="44.3"></rect><rect class="cls-5" x="277.09" y="1128.56" width="130.36" height="18.13"></rect><rect class="cls-2" x="418.7" y="1156.1" width="69.77" height="89.51"></rect><rect class="cls-4" x="427.42" y="1181.35" width="51.18" height="19.05"></rect><rect class="cls-4" x="427.42" y="1209.58" width="51.18" height="28.92"></rect><rect class="cls-5" x="414.57" y="1156.1" width="77.81" height="14"></rect><rect class="cls-2" x="500.41" y="1156.1" width="69.77" height="89.51"></rect><rect class="cls-4" x="509.13" y="1181.35" width="51.18" height="19.05"></rect><rect class="cls-4" x="509.13" y="1209.58" width="51.18" height="28.92"></rect><rect class="cls-5" x="496.28" y="1156.1" width="77.81" height="14"></rect><rect class="cls-2" x="582.12" y="1156.1" width="69.77" height="89.51"></rect><rect class="cls-4" x="590.84" y="1181.35" width="51.18" height="19.05"></rect><rect class="cls-4" x="590.84" y="1209.58" width="51.18" height="28.92"></rect><rect class="cls-5" x="577.98" y="1156.1" width="77.81" height="14"></rect><rect class="cls-2" x="663.82" y="1156.1" width="69.77" height="89.51"></rect><rect class="cls-4" x="672.54" y="1181.35" width="51.18" height="19.05"></rect><rect class="cls-4" x="672.54" y="1209.58" width="51.18" height="28.92"></rect><rect class="cls-5" x="659.69" y="1156.1" width="77.81" height="14"></rect><rect class="cls-3" x="129.05" y="1283.71" width="614.64" height="16.53"></rect><g id="freepik--background-complete--inject-2"><path class="cls-7" d="M583.49,346.83c-18.82,70-90.89,111.55-161.12,92.73-70-18.82-111.54-90.89-92.72-161.12s90.89-111.55,161.12-92.73H491c70,19,111.54,91.12,92.49,161.12Z"></path><path class="cls-7" d="M556.64,340.86A100.19,100.19,0,1,1,486,218.07h.23A100.54,100.54,0,0,1,556.64,340.86Z"></path><path class="cls-8" d="M553.43,338.8c0-.46.23-1.15.23-1.61.23-1.15.45-2.75.91-4.59.23-.92.46-2.06.69-3.44s.23-2.75.46-4.13a78.83,78.83,0,0,0,.69-10.56,91.8,91.8,0,0,0-3.9-28.46c-13.08-45.67-56.69-76-104-71.84-4.59.46-9.41,1.15-14,2.07-2.3.46-4.59,1.38-6.89,1.83-2.29.69-4.59,1.38-6.88,2.3a141.22,141.22,0,0,0-13.32,6.2,116.21,116.21,0,0,0-12.39,8.49,102,102,0,0,0-20.88,22.49,104.56,104.56,0,0,0-13.09,28.69,97.3,97.3,0,0,0-3.21,31.44,90.55,90.55,0,0,0,6.66,30.07A103.8,103.8,0,0,0,371,361.29a145.51,145.51,0,0,0,8.26,12.17,108.69,108.69,0,0,0,9.64,10.78,103.71,103.71,0,0,0,11,8.95A102.06,102.06,0,0,0,449,411.1a99,99,0,0,0,76.88-27.32,92,92,0,0,0,17.68-22.49,73.82,73.82,0,0,0,4.82-9.41c.69-1.38,1.14-2.75,1.83-3.9l1.15-3.21,1.61-4.59a2.47,2.47,0,0,1,.46-1.38,5.85,5.85,0,0,1-.46,1.61c-.23,1.14-.92,2.75-1.38,4.59l-1.15,3.44c-.46,1.15-1.15,2.52-1.6,3.9a93.59,93.59,0,0,1-4.59,9.64,90,90,0,0,1-17.68,22.95A100.84,100.84,0,0,1,398.5,395.26a106.58,106.58,0,0,1-11.24-8.95,89,89,0,0,1-9.87-11,90.84,90.84,0,0,1-8.49-12.39,94.06,94.06,0,0,1-6.43-13.77,92.17,92.17,0,0,1-6.66-30.53A116.88,116.88,0,0,1,359,286.47a113,113,0,0,1,13.31-29.38,96.79,96.79,0,0,1,21.34-22.95,123.92,123.92,0,0,1,12.63-8.72A103.87,103.87,0,0,1,419.85,219c2.29-.92,4.59-1.83,6.88-2.52a64.36,64.36,0,0,1,7.12-1.84,102.41,102.41,0,0,1,66.56,7.81,101,101,0,0,1,53,63.8,87.18,87.18,0,0,1,3.44,28.69,54.68,54.68,0,0,1-.92,10.56c-.23,1.6-.23,3-.46,4.13a19.06,19.06,0,0,1-.92,3.44l-1.14,4.59A1,1,0,0,1,553.43,338.8Z"></path><path class="cls-8" d="M552.28,339.49c-.46-.23.23-4.59.69-12.4a103.34,103.34,0,0,0-3-32.59,116.39,116.39,0,0,0-7.8-21.11,101.14,101.14,0,0,0-14.46-21.12,98.74,98.74,0,0,0-9.87-9.64,109.92,109.92,0,0,0-11.7-8.49,91.48,91.48,0,0,0-13.32-6.66c-4.82-1.83-9.64-3.44-14.68-4.82A116.51,116.51,0,0,0,463,220.37a80.83,80.83,0,0,0-14.92,0,92.77,92.77,0,0,0-27.31,6.43A111.43,111.43,0,0,0,398.27,239a114.78,114.78,0,0,0-16.52,15.15,108.72,108.72,0,0,0-17.44,27.77c-3.22,7.11-4.36,11.48-5.05,11.25s0-4.59,2.29-12.4a96.16,96.16,0,0,1,16.07-30.29,98.83,98.83,0,0,1,40.62-30.53,100.21,100.21,0,0,1,29.38-7.34,124.92,124.92,0,0,1,16.07-.23A96.24,96.24,0,0,1,480,214.86a123.5,123.5,0,0,1,15.61,5,120.53,120.53,0,0,1,14.23,7.34,95.93,95.93,0,0,1,12.39,9.19A91.47,91.47,0,0,1,532.77,247a101.09,101.09,0,0,1,14.92,22.95,107.34,107.34,0,0,1,7.34,22.5,94.85,94.85,0,0,1,.69,34.19C554.57,335.59,553,339.72,552.28,339.49Z"></path><path class="cls-8" d="M452,373l-4.36,17-15.15-3.9,4.13-16.53c-14.69-4.82-27.77-13.08-34.42-21.57l13.08-16.3a62.75,62.75,0,0,0,26.62,18.14l6.43-25.25c-15.61-8.26-33.05-18.82-27.54-40.4,4.13-16.06,19.28-26.85,43.83-23.41L469,244l15.15,3.9L480,264.44a71.09,71.09,0,0,1,28.23,17L495.82,298a64.69,64.69,0,0,0-21.12-13.78l-6.42,25.94c15.83,8.26,32.59,18.59,27.31,39.71C491.46,365.65,476.54,376.21,452,373Zm2.07-70.46,5.5-21.35c-8.49-.23-12.85,3.21-14,8.26S447.85,298.63,454.05,302.54Zm16.75,42.91c1.38-5.27-2.29-9.18-8.26-13.31L457.26,353C465.06,353.49,469.42,350.27,470.8,345.45Z"></path><path class="cls-7" d="M798.55,214.4a88.11,88.11,0,1,1-113.61-51.18h.23A88,88,0,0,1,798.55,214.4Z"></path><path class="cls-7" d="M781.56,221.75a67.26,67.26,0,1,1-86.75-39H695A67.14,67.14,0,0,1,781.56,221.75Z"></path><path class="cls-8" d="M778.81,221.75a1.74,1.74,0,0,1-.46-.92,27.18,27.18,0,0,0-1.38-3l-.91-2.06a25.09,25.09,0,0,1-1.38-2.53,53.09,53.09,0,0,0-3.67-6,59.38,59.38,0,0,0-13.32-14A66.24,66.24,0,0,0,704.45,180a67.6,67.6,0,0,0-31.68,14.92,63.07,63.07,0,0,0-6.88,6.66,41.9,41.9,0,0,0-3,3.67,15.44,15.44,0,0,0-2.75,3.9,65.1,65.1,0,0,0-4.82,8.72,66,66,0,0,0-3.44,9.41,68.26,68.26,0,0,0-2.53,20.43,65.69,65.69,0,0,0,30.07,53,64.49,64.49,0,0,0,8.72,4.82,43.49,43.49,0,0,0,9.18,3.21,59,59,0,0,0,18.82,2.53,67.65,67.65,0,0,0,33.74-9.64,64.62,64.62,0,0,0,21.8-21.35,65.84,65.84,0,0,0,9.18-23.64,67.8,67.8,0,0,0,.69-19.28,36.6,36.6,0,0,0-1.14-6.88c-.23-.92-.23-1.84-.46-2.76s-.46-1.6-.69-2.29l-.92-3c0-.46-.23-.69-.23-1.15.23.23.23.69.46.92l1.15,3c.23.69.46,1.38.69,2.29s.45,1.84.68,2.76a35.83,35.83,0,0,1,1.15,6.88,61.73,61.73,0,0,1-.46,19.51,67.79,67.79,0,0,1-31.21,45.91,67.66,67.66,0,0,1-63.12,3.9,57.53,57.53,0,0,1-9-5.05,65.08,65.08,0,0,1-15.61-14,67.19,67.19,0,0,1-15.14-39.94,64.51,64.51,0,0,1,2.52-20.88,69.31,69.31,0,0,1,3.44-9.64c1.61-3,3.45-6,5.28-8.72l2.76-4.14a44.41,44.41,0,0,0,3-3.9,63.11,63.11,0,0,1,6.89-6.65A67.92,67.92,0,0,1,704,178.37a67.19,67.19,0,0,1,53.93,13.77,71.24,71.24,0,0,1,13.32,14.23,53.23,53.23,0,0,1,3.67,6,28.42,28.42,0,0,0,1.37,2.52l.92,2.07c.46,1.37.92,2.29,1.15,3A4,4,0,0,1,778.81,221.75Z"></path><path class="cls-8" d="M778.81,222.66c-.46.23-1.61-2.52-4.59-6.88a70.53,70.53,0,0,0-14.46-16.53A66.77,66.77,0,0,0,747.14,191a67.45,67.45,0,0,0-16.07-5.74,64.78,64.78,0,0,0-18.82-1.37,49.77,49.77,0,0,0-9.87,1.6,71.16,71.16,0,0,0-9.87,3.22,67.21,67.21,0,0,0-9.18,4.59,65.91,65.91,0,0,0-8,6,48.77,48.77,0,0,0-6.89,6.89,56.48,56.48,0,0,0-5.51,7.34,65,65,0,0,0-7.34,15.61,79.23,79.23,0,0,0-3,14.69,71.48,71.48,0,0,0,1.37,22c1.15,5.05,2.07,8,1.61,8-.46.23-1.84-2.53-3.67-7.58a63.49,63.49,0,0,1-3.22-22.72,75.73,75.73,0,0,1,2.53-15.84A64.45,64.45,0,0,1,658.54,211a70.53,70.53,0,0,1,13.09-15.38,60.33,60.33,0,0,1,8.72-6.42,77.74,77.74,0,0,1,9.87-5,80.82,80.82,0,0,1,10.55-3.45,65.35,65.35,0,0,1,21.12-1.37,73.48,73.48,0,0,1,9.87,1.6,66.17,66.17,0,0,1,43.61,34.43C778.35,219.45,779,222.44,778.81,222.66Z"></path><path class="cls-8" d="M737.27,280.27l4.36,10.79L732,295l-4.13-10.56c-9.87,3.22-20.2,3.91-27.32,1.84l.69-14a42.9,42.9,0,0,0,21.58-.46l-6.43-16.29c-11.93,1.6-25.25,2.75-30.75-11.25-4.13-10.33,0-22,14.69-29.84l-4.14-10.79,9.64-3.9L710,210.27a48.08,48.08,0,0,1,22-1.84l-.23,13.78a41.42,41.42,0,0,0-16.76.68l6.43,16.53c11.71-1.84,25-2.75,30.53,11C755.86,260.76,752,272.47,737.27,280.27ZM710.64,241l-5.5-13.78c-4.6,3.22-5.74,6.89-4.37,10.1S705.82,241.48,710.64,241Zm25.94,17c-1.38-3.44-4.82-4.13-9.64-3.9l5.28,13.31C736.81,264.44,738,261,736.58,258Z"></path><path class="cls-7" d="M766.65,438.18a88.25,88.25,0,0,1-51.42,113.38h0a85.45,85.45,0,0,1-14.91,4.13,88,88,0,1,1,66.33-117.51Z"></path><path class="cls-7" d="M749.43,445.52a67.11,67.11,0,1,1-86.53-39h.23A66.89,66.89,0,0,1,749.43,445.52Z"></path><path class="cls-8" d="M746.91,445.52a1.75,1.75,0,0,1-.46-.91,27.18,27.18,0,0,0-1.38-3l-.92-2.06a23.28,23.28,0,0,1-1.37-2.53,52.73,52.73,0,0,0-3.68-6,64.35,64.35,0,0,0-13.31-14,67.1,67.1,0,0,0-84.92,1.61c-2.29,2.07-4.59,4.36-6.88,6.66a40.47,40.47,0,0,0-3,3.67,23.74,23.74,0,0,0-2.75,3.9A64.74,64.74,0,0,0,620,451a68.22,68.22,0,0,0-2.53,20.43,66.77,66.77,0,0,0,14.69,39.25,63.32,63.32,0,0,0,15.38,13.77,65,65,0,0,0,8.72,4.82,72.86,72.86,0,0,0,18.82,5.5,64.48,64.48,0,0,0,9.41.46,67,67,0,0,0,64.95-54.62,67.81,67.81,0,0,0,.69-19.28,35.93,35.93,0,0,0-1.15-6.89,13.57,13.57,0,0,1-.46-2.75l-.69-2.3c-.45-1.37-.68-2.29-.91-3,.23-.23,0-.46,0-.92.23.46.23.69.46,1.15l1.14,3,.69,2.3.69,2.75a35.93,35.93,0,0,1,1.15,6.89,61.73,61.73,0,0,1-.46,19.51A67.75,67.75,0,0,1,719.36,527a67,67,0,0,1-53.7,7.35,65.61,65.61,0,0,1-9.41-3.45,55.51,55.51,0,0,1-9-5,64.89,64.89,0,0,1-15.61-14A66.94,66.94,0,0,1,620.9,493a67.86,67.86,0,0,1-4.13-21.34,64.3,64.3,0,0,1,2.53-20.89,79.56,79.56,0,0,1,3.44-9.64,64.49,64.49,0,0,1,4.82-8.72c.92-1.38,1.84-2.75,2.75-4.13a45.63,45.63,0,0,0,3-3.9,63.07,63.07,0,0,1,6.88-6.66,68.15,68.15,0,0,1,32.36-15.15,69,69,0,0,1,53.94,13.77,71.44,71.44,0,0,1,13.31,14.23,51.27,51.27,0,0,1,3.67,6,25.09,25.09,0,0,0,1.38,2.53l.92,2.29c.46,1.15.92,2.3,1.15,3C746.68,444.83,746.91,445.29,746.91,445.52Z"></path><path class="cls-8" d="M746.68,446.44c-.46.23-1.61-2.52-4.59-6.88A68.12,68.12,0,0,0,715,414.77,66.94,66.94,0,0,0,698.94,409a64.47,64.47,0,0,0-18.82-1.38,49,49,0,0,0-9.87,1.61,72,72,0,0,0-9.87,3.21,69.58,69.58,0,0,0-9.18,4.59,67.06,67.06,0,0,0-8,6,48.77,48.77,0,0,0-6.89,6.89,56.48,56.48,0,0,0-5.51,7.34,67.69,67.69,0,0,0-10.33,30.3,71.49,71.49,0,0,0,1.38,22c1.15,5.05,2.07,8,1.61,8s-1.84-2.52-3.67-7.57a63.3,63.3,0,0,1-3.22-22.72,66.23,66.23,0,0,1,10.1-32.59,70.21,70.21,0,0,1,13.08-15.38,61,61,0,0,1,8.73-6.43,81,81,0,0,1,9.86-5.05,66.66,66.66,0,0,1,21.12-5.05,74.24,74.24,0,0,1,20.2,1.61,68.33,68.33,0,0,1,30.06,16.07,63,63,0,0,1,13.77,18.36C746.22,443.46,746.91,446.21,746.68,446.44Z"></path><path class="cls-8" d="M705.36,504.05l4.37,10.79-9.64,3.9-4.36-10.56c-9.87,3.21-20.2,3.9-27.32,1.84l.69-14a43.13,43.13,0,0,0,21.58-.46l-6.43-16.3C672.54,480.87,659,482,653.49,468c-4.13-10.33,0-22,14.69-29.84l-4.36-10.79,9.64-3.9,4.13,10.56a47.81,47.81,0,0,1,22-1.84L699.4,446a38.85,38.85,0,0,0-17,.92l6.43,16.53c11.7-1.84,25-2.76,30.52,11C723.73,484.54,719.82,496.25,705.36,504.05ZM678.74,464.8,673.23,451c-4.59,3.21-5.74,6.89-4.36,10.1S673.92,465.26,678.74,464.8Zm25.94,17c-1.38-3.45-4.82-4.13-9.64-3.91l5.28,13.55C704.68,488.21,705.82,484.77,704.68,481.79Z"></path></g><g id="freepik--Device--inject-2"><path class="cls-9" d="M1162.1,1133.38l-279.78-.23a60.82,60.82,0,0,1-60.82-61.05l.23-701.4a61,61,0,0,1,60.82-61.05h0l279.78.23a60.82,60.82,0,0,1,60.82,61.05l-.23,701.4a60.82,60.82,0,0,1-60.82,61.05Z"></path><path class="cls-4" d="M1161.41,335.13h-54.17a13.52,13.52,0,0,0-13.08,13.77h0v9.87a13.52,13.52,0,0,1-13.08,13.77H975.27a13.52,13.52,0,0,1-13.08-13.77v-10.1a13.52,13.52,0,0,0-13.08-13.77H882.55a42.61,42.61,0,0,0-42.69,42.69l-.23,684.64a42.61,42.61,0,0,0,42.69,42.69l279.09.23a42.61,42.61,0,0,0,42.69-42.69l.23-684.64A43.1,43.1,0,0,0,1161.41,335.13Z"></path><path class="cls-8" d="M1204.1,455.62c0,.23-81.71.69-182.23.69s-182.47-.23-182.47-.69,81.71-.69,182.47-.69S1204.1,455.39,1204.1,455.62Z"></path><path d="M1127.9,981.9h-3v2.75h-1.38V981.9h-3v-1.15h3v-3h1.38v3h3Z"></path><path d="M1133,975.7V987h-1.61v-9.87h-2.52V975.7Z"></path><path d="M1135.47,981.21c0-3.67,2.07-5.74,4.59-5.74s4.6,2.07,4.6,5.74-2.07,5.74-4.6,5.74S1135.47,984.88,1135.47,981.21Zm7.58,0c0-2.75-1.15-4.36-3-4.36s-3,1.38-3,4.36,1.15,4.36,3,4.36,3-1.38,3-4.36Z"></path><path d="M1146,981.21c0-3.67,2.07-5.74,4.59-5.74s4.59,2.07,4.59,5.74-2.06,5.74-4.59,5.74S1146,984.88,1146,981.21Zm7.58,0c0-2.75-1.15-4.36-3-4.36s-3,1.38-3,4.36,1.15,4.36,3,4.36S1153.61,984.19,1153.61,981.21Z"></path><path d="M1156.82,981.21c0-3.67,2.07-5.74,4.59-5.74s4.59,2.07,4.59,5.74-2.07,5.74-4.59,5.74S1156.82,984.88,1156.82,981.21Zm7.57,0c0-2.75-1.14-4.36-3-4.36s-3,1.38-3,4.36,1.14,4.36,3,4.36,3-1.38,3-4.36Z"></path><path class="cls-7" d="M886,809.76h271.29a46.63,46.63,0,0,1,46.59,46.59V1070a35.12,35.12,0,0,1-35.12,35.12H875.43a36.35,36.35,0,0,1-36.26-36.27h0V856.35A46.83,46.83,0,0,1,886,809.76Z"></path><path class="cls-4" d="M1049.87,837.3h-40.63a2.3,2.3,0,0,1,0-4.59h40.63a2.17,2.17,0,0,1,2.29,2.3A2.29,2.29,0,0,1,1049.87,837.3Z"></path><path class="cls-10" d="M995.24,898.13c0,.23-10.79.68-24.1.68s-24.1-.23-24.1-.68,10.79-.69,24.1-.69S995.24,897.9,995.24,898.13Z"></path><path class="cls-8" d="M995.24,923.6a210.8,210.8,0,0,1-24.1.69,210.93,210.93,0,0,1-24.1-.69c0-.23,10.79-.69,24.1-.69C984.45,923.14,995.24,923.37,995.24,923.6Z"></path><path class="cls-8" d="M1037.7,911c0,.23-20.43.69-45.44.69s-45.45-.23-45.45-.69,20.43-.69,45.45-.69S1037.7,910.75,1037.7,911Z"></path><path class="cls-10" d="M1120.56,910.75h4.36v1.38h-4.36Z"></path><path class="cls-10" d="M1136.39,913h-2.06v2.76h-1.61V913h-6.2V911.9l5.74-7.35h1.84l-5.51,7.12H1133v-2.53h1.61v2.53h2.06l-.23,1.37Z"></path><path class="cls-10" d="M1145.34,912.59c0,2.06-1.37,3.44-4.36,3.44a6.88,6.88,0,0,1-4.13-1.38l.69-1.15a5.64,5.64,0,0,0,3.44,1.15c1.61,0,2.76-.69,2.76-2.06s-.92-2.07-3.45-2.07h-2.52l.69-5.74h6.42v1.38h-5l-.23,3h1.14C1144,909.14,1145.34,910.52,1145.34,912.59Z"></path><path class="cls-10" d="M1146.49,914.88a1.15,1.15,0,1,1,1.15,1.15,1.09,1.09,0,0,1-1.15-1.15Z"></path><path class="cls-10" d="M1158.66,910.06a5,5,0,0,1-4.37,5.74h-.91a6.12,6.12,0,0,1-2.76-.69l.69-1.15a3.42,3.42,0,0,0,2.07.46c2.29,0,3.67-1.38,3.67-4.13v-.23a3.53,3.53,0,0,1-3.21,1.38,3.57,3.57,0,0,1-3.91-3v-.23a3.32,3.32,0,0,1,3.68-3.44h.23C1156.82,904.55,1158.66,906.62,1158.66,910.06Zm-2.07-2.07c0-1.14-.92-2.06-2.75-2.06a2.5,2.5,0,0,0-2.53,2.06h0a2.24,2.24,0,0,0,2.53,2.3,2.73,2.73,0,0,0,2.75-2.3Z"></path><path class="cls-10" d="M1160,910.29c0-3.67,2.07-5.74,4.59-5.74s4.59,2.07,4.59,5.74-2.06,5.74-4.59,5.74S1160,914,1160,910.29Zm7.58,0c0-2.75-1.15-4.36-3-4.36s-3,1.38-3,4.36,1.15,4.36,3,4.36,3.22-1.61,3-4.36Z"></path><path class="cls-1" d="M889.21,888.49a29.8,29.8,0,0,0-4.37,3.21,19.68,19.68,0,0,0-3.21,4.36,20.54,20.54,0,0,0-2.75,10.33,19.58,19.58,0,0,0,.69,5.28,20.54,20.54,0,0,0,5.27,9.18,30.54,30.54,0,0,0,4.37,3.21,21.57,21.57,0,0,0,4.82,2.07,20.71,20.71,0,0,0,5.27.68,19.48,19.48,0,0,0,5.28-.68,20.55,20.55,0,0,0,9.18-5.28h0a31.08,31.08,0,0,0,3.22-4.36,22.41,22.41,0,0,0,2.06-4.82,20.86,20.86,0,0,0,.69-5.28A20.54,20.54,0,0,0,917,896.06a20,20,0,0,0-7.58-7.57,21.57,21.57,0,0,0-4.82-2.07,20.51,20.51,0,0,0-10.55,0A23.14,23.14,0,0,0,889.21,888.49Z"></path><path class="cls-11" d="M909.63,924.06a21.57,21.57,0,0,1-4.82,2.07,20.8,20.8,0,0,1-10.55,0,17.83,17.83,0,0,1-4.82-2.07,30.54,30.54,0,0,1-4.37-3.21,20.88,20.88,0,0,1-5.27-19.74,17.62,17.62,0,0,1,2.06-4.82,31.22,31.22,0,0,1,3.21-4.36,29.8,29.8,0,0,1,4.37-3.21,21.57,21.57,0,0,1,4.82-2.07,20.73,20.73,0,0,1,5.27-.69v-4.13a20.65,20.65,0,0,0-6.42.92,19.68,19.68,0,0,0-6,2.52,25.09,25.09,0,0,0-11.48,14.92,23.71,23.71,0,0,0,0,12.62,19.36,19.36,0,0,0,2.53,6,21.15,21.15,0,0,0,3.9,5.05,26.57,26.57,0,0,0,5,3.9,27.4,27.4,0,0,0,6,2.53,23.51,23.51,0,0,0,12.62,0,19.46,19.46,0,0,0,6-2.53,26.89,26.89,0,0,0,5-3.9L914,921.08C912.39,922,911,923.14,909.63,924.06Z"></path><path class="cls-4" d="M922.94,900a19.3,19.3,0,0,0-2.52-6,21.36,21.36,0,0,0-3.9-5,27.37,27.37,0,0,0-5-3.91,27.86,27.86,0,0,0-6-2.52,28.82,28.82,0,0,0-6.43-.92v4.13a19.48,19.48,0,0,1,5.28.69,15.18,15.18,0,0,1,4.82,2.07,20,20,0,0,1,7.58,7.57,20.54,20.54,0,0,1,2.75,10.33,19.58,19.58,0,0,1-.69,5.28,15.36,15.36,0,0,1-2.06,4.82,31.08,31.08,0,0,1-3.22,4.36h0l2.76,2.75h0a27,27,0,0,0,3.9-5.05,26.69,26.69,0,0,0,2.52-6,21.47,21.47,0,0,0,.23-12.62Z"></path><path class="cls-10" d="M895.4,908.91a2.19,2.19,0,0,1-2.52,2.07c-1.84,0-3-1.38-3-3.44a3.41,3.41,0,0,1,3.22-3.68,1.91,1.91,0,0,1,1.6.46l-.23.46a2.86,2.86,0,0,0-1.37-.23c-1.61,0-2.53.92-2.53,3V908c.46-.68,1.38-1.37,2.07-1.14a1.94,1.94,0,0,1,2.29,1.83C895.4,908.68,895.4,908.68,895.4,908.91Zm-.69,0a1.56,1.56,0,0,0-1.6-1.6h-.23c-.92,0-1.84.46-1.84,1.37h0a1.78,1.78,0,0,0,1.84,1.61c.92.23,1.6-.46,1.83-1.38Z"></path><path class="cls-10" d="M901.14,908.91c0,1.15-.92,2.07-2.52,2.07a3.46,3.46,0,0,1-2.53-.92l.23-.46a4.13,4.13,0,0,0,2.07.92c1.14,0,1.83-.46,1.83-1.38s-.46-1.37-2.29-1.37h-1.61l.46-3.45h3.9V905h-3.21l-.23,2.3h.92C900.22,906.85,901.14,907.54,901.14,908.91Z"></path><path class="cls-10" d="M901.83,905.7a1.47,1.47,0,0,1,1.38-1.84h.23a1.86,1.86,0,0,1,0,3.68,1.45,1.45,0,0,1-1.61-1.84Zm2.52,0c0-.92-.46-1.38-1.14-1.38s-1.15.46-1.15,1.38.46,1.38,1.15,1.38C904.12,907.31,904.35,906.62,904.35,905.7Zm3.22-1.84h.69L903.44,911h-.69Zm-1.38,5.28a1.47,1.47,0,0,1,1.38-1.83h.23a1.85,1.85,0,0,1,0,3.67c-1.15,0-1.84-.69-1.61-1.84Zm2.52,0c0-.92-.45-1.37-1.14-1.37s-1.15.45-1.15,1.37.46,1.38,1.15,1.38S908.71,910.06,908.71,909.14Z"></path><path class="cls-10" d="M995.24,969.28a213.11,213.11,0,0,1-24.1.68,213.24,213.24,0,0,1-24.1-.68c0-.23,10.79-.69,24.1-.69S995.24,968.82,995.24,969.28Z"></path><path class="cls-8" d="M995.24,994.75a210.8,210.8,0,0,1-24.1.69,210.93,210.93,0,0,1-24.1-.69c0-.23,10.79-.69,24.1-.69S995.24,994.29,995.24,994.75Z"></path><path class="cls-8" d="M1037.7,982.13c0,.23-20.43.69-45.44.69s-45.45-.23-45.45-.69,20.43-.69,45.45-.69S1037.7,981.67,1037.7,982.13Z"></path><path class="cls-10" d="M1127.9,981.9h-3v2.75h-1.38V981.9h-3v-1.15h3v-3h1.38v3h3Z"></path><path class="cls-10" d="M1133,975.7V987h-1.61v-9.87h-2.52V975.7Z"></path><path class="cls-10" d="M1135.47,981.21c0-3.67,2.07-5.74,4.59-5.74s4.6,2.07,4.6,5.74-2.07,5.74-4.6,5.74S1135.47,984.88,1135.47,981.21Zm7.58,0c0-2.75-1.15-4.36-3-4.36s-3,1.38-3,4.36,1.15,4.36,3,4.36,3-1.38,3-4.36Z"></path><path class="cls-10" d="M1146,981.21c0-3.67,2.07-5.74,4.59-5.74s4.59,2.07,4.59,5.74-2.06,5.74-4.59,5.74S1146,984.88,1146,981.21Zm7.58,0c0-2.75-1.15-4.36-3-4.36s-3,1.38-3,4.36,1.15,4.36,3,4.36S1153.61,984.19,1153.61,981.21Z"></path><path class="cls-10" d="M1156.82,981.21c0-3.67,2.07-5.74,4.59-5.74s4.59,2.07,4.59,5.74-2.07,5.74-4.59,5.74S1156.82,984.88,1156.82,981.21Zm7.57,0c0-2.75-1.14-4.36-3-4.36s-3,1.38-3,4.36,1.14,4.36,3,4.36S1164.39,984.19,1164.39,981.21Z"></path><path class="cls-1" d="M885.76,959.64a18,18,0,0,0-7.57,7.57,21.77,21.77,0,0,0-2.07,4.82,20.76,20.76,0,0,0,0,10.56,18.1,18.1,0,0,0,2.07,4.82,18,18,0,0,0,7.57,7.57,22,22,0,0,0,4.82,2.07,20.76,20.76,0,0,0,10.56,0A15.28,15.28,0,0,0,906,995a19.73,19.73,0,0,0,4.13-3.21h0a19.29,19.29,0,0,0,3.21-4.36,22,22,0,0,0,2.07-4.82,20.55,20.55,0,0,0,0-10.56,18,18,0,0,0-2.07-4.82,19.94,19.94,0,0,0-7.57-7.57,21.77,21.77,0,0,0-4.82-2.07,18.6,18.6,0,0,0-15.15,2.07Z"></path><path class="cls-4" d="M906.19,995a21.77,21.77,0,0,1-4.82,2.07,20.76,20.76,0,0,1-10.56,0A15.38,15.38,0,0,1,886,995a18,18,0,0,1-7.57-7.57,22,22,0,0,1-2.07-4.82,20.55,20.55,0,0,1,0-10.56,18,18,0,0,1,2.07-4.82,18,18,0,0,1,7.57-7.57,22,22,0,0,1,4.82-2.07,20.86,20.86,0,0,1,5.28-.69v-4.13a20.76,20.76,0,0,0-6.43.92,19.63,19.63,0,0,0-6,2.52,42.36,42.36,0,0,0-5.05,3.9,26.89,26.89,0,0,0-3.9,5,24.69,24.69,0,0,0,0,24.56,23.88,23.88,0,0,0,9,8.95,27.32,27.32,0,0,0,6,2.53,23.55,23.55,0,0,0,12.63,0,24.58,24.58,0,0,0,11-6.43L910.55,992A38.35,38.35,0,0,1,906.19,995Z"></path><path class="cls-11" d="M919.5,970.88a23.4,23.4,0,0,0-6.42-11A27.37,27.37,0,0,0,908,956a28.08,28.08,0,0,0-6-2.52,28.9,28.9,0,0,0-6.43-.92v4.13a19.53,19.53,0,0,1,5.28.69,15.28,15.28,0,0,1,4.82,2.07A19.94,19.94,0,0,1,913.3,967a21.77,21.77,0,0,1,2.07,4.82,20.55,20.55,0,0,1,0,10.56,18.1,18.1,0,0,1-2.07,4.82,30.25,30.25,0,0,1-3.21,4.36h0l2.76,2.75h0a23,23,0,0,0,6.65-23.41Z"></path><path class="cls-10" d="M995.24,1040.2a213.11,213.11,0,0,1-24.1.68,213.24,213.24,0,0,1-24.1-.68c0-.23,10.79-.69,24.1-.69S995.24,1040,995.24,1040.2Z"></path><path class="cls-8" d="M995.24,1065.67a210.8,210.8,0,0,1-24.1.69,210.93,210.93,0,0,1-24.1-.69c0-.23,10.79-.69,24.1-.69S995.24,1065.44,995.24,1065.67Z"></path><path class="cls-8" d="M1037.7,1053.05c0,.23-20.43.69-45.44.69s-45.45-.23-45.45-.69,20.43-.69,45.45-.69S1037.7,1052.82,1037.7,1053.05Z"></path><path class="cls-10" d="M1120.56,1052.82h4.36v1.38h-4.36Z"></path><path class="cls-10" d="M1134.56,1054.65c0,1.84-1.38,3.45-4.36,3.45a6.89,6.89,0,0,1-4.14-1.38l.69-1.15a4.52,4.52,0,0,0,3.45,1.15c1.6,0,2.52-.92,2.52-2.07s-.69-2.06-3.44-2.06H1127l.69-5.74h6.43v1.38h-5l-.23,3H1130C1133.18,1051.21,1134.56,1052.59,1134.56,1054.65Z"></path><path class="cls-10" d="M1144.43,1054.42a3.63,3.63,0,0,1-3.68,3.68h-.23c-3,0-4.59-2.07-4.59-5.51a5,5,0,0,1,4.36-5.74h.92a6.12,6.12,0,0,1,2.76.69l-.69,1.15a3.42,3.42,0,0,0-2.07-.46c-2.29,0-3.67,1.38-3.67,4.13v.46a3.53,3.53,0,0,1,3.21-1.38,3.57,3.57,0,0,1,3.91,3C1144.43,1054.2,1144.43,1054.42,1144.43,1054.42Zm-1.38,0c0-1.37-.92-2.06-2.53-2.06a2.28,2.28,0,0,0-2.52,2.06v.23c0,1.15.92,2.07,2.75,2.07a2.66,2.66,0,0,0,2.3-2.3Z"></path><path class="cls-10" d="M1145.8,1057a1.09,1.09,0,0,1,1.15-1.15h0c.46,0,1.15.46,1.15.92h0a1.05,1.05,0,0,1-.92,1.15h0c-.92.23-1.38-.23-1.38-.92Z"></path><path class="cls-10" d="M1157.74,1052.13a5,5,0,0,1-4.36,5.74h-.92a6.12,6.12,0,0,1-2.76-.69l.69-1.15a3.42,3.42,0,0,0,2.07.46c2.29,0,3.67-1.38,3.67-4.13v-.46a3.52,3.52,0,0,1-3.21,1.38,3.56,3.56,0,0,1-3.9-3v-.23a3.31,3.31,0,0,1,3.67-3.44h.23C1156.13,1046.62,1157.74,1048.69,1157.74,1052.13Zm-1.84-2.07c0-1.14-.92-2.06-2.75-2.06a2.5,2.5,0,0,0-2.53,2.06h0c0,1.38.92,2.07,2.53,2.07a2.37,2.37,0,0,0,2.75-2.07Z"></path><path class="cls-10" d="M1159.34,1052.36c0-3.67,2.07-5.74,4.59-5.74s4.59,2.07,4.59,5.74-2.06,5.74-4.59,5.74S1159.34,1056,1159.34,1052.36Zm7.58,0c0-2.75-1.15-4.36-3-4.36s-3,1.38-3,4.36,1.15,4.36,3,4.36S1166.92,1055.11,1166.92,1052.36Z"></path><path class="cls-1" d="M889.21,1030.56a29.8,29.8,0,0,0-4.37,3.21,19.68,19.68,0,0,0-3.21,4.36,21.72,21.72,0,0,0-2.06,4.82,20.55,20.55,0,0,0,0,10.56,15.36,15.36,0,0,0,2.06,4.82,20.34,20.34,0,0,0,3.21,4.13,30.54,30.54,0,0,0,4.37,3.21,21.57,21.57,0,0,0,4.82,2.07,20.73,20.73,0,0,0,5.27.69,19.48,19.48,0,0,0,5.28-.69,20.55,20.55,0,0,0,9.18-5.28h0a52.18,52.18,0,0,0,3.22-4.13,22.41,22.41,0,0,0,2.06-4.82,20.86,20.86,0,0,0,.69-5.28A19.53,19.53,0,0,0,919,1043a15.5,15.5,0,0,0-2.06-4.82,20,20,0,0,0-7.58-7.57,21.57,21.57,0,0,0-4.82-2.07,20.51,20.51,0,0,0-10.55,0A23.14,23.14,0,0,0,889.21,1030.56Z"></path><path class="cls-11" d="M909.63,1066.13a21.57,21.57,0,0,1-4.82,2.07,20.8,20.8,0,0,1-10.55,0,17.83,17.83,0,0,1-4.82-2.07,31.32,31.32,0,0,1-4.37-3.21,18.69,18.69,0,0,1-3.21-4.13,21.45,21.45,0,0,1-2.06-4.82,20.86,20.86,0,0,1-.69-5.28,19.48,19.48,0,0,1,.69-5.28,15,15,0,0,1,2.06-4.82,18.07,18.07,0,0,1,7.58-7.58,22,22,0,0,1,4.82-2.06,20.73,20.73,0,0,1,5.27-.69v-4.13a20.65,20.65,0,0,0-6.42.92,19.44,19.44,0,0,0-6,2.52,25.09,25.09,0,0,0-11.48,14.92,23.71,23.71,0,0,0,0,12.62,19.46,19.46,0,0,0,2.53,6,21.15,21.15,0,0,0,3.9,5.05,27,27,0,0,0,5,3.9,25.5,25.5,0,0,0,12.39,3.22,20.72,20.72,0,0,0,6.43-.92,24.66,24.66,0,0,0,11-6.43l-2.76-2.75A39.34,39.34,0,0,0,909.63,1066.13Z"></path><path class="cls-4" d="M922.94,1042a19.3,19.3,0,0,0-2.52-6,24,24,0,0,0-8.95-9,27.86,27.86,0,0,0-6-2.52,28.82,28.82,0,0,0-6.43-.92v4.13a19.48,19.48,0,0,1,5.28.69,15.18,15.18,0,0,1,4.82,2.07,20,20,0,0,1,7.58,7.57,21.72,21.72,0,0,1,2.06,4.82,20.55,20.55,0,0,1,0,10.56,15.36,15.36,0,0,1-2.06,4.82,20,20,0,0,1-3.22,4.13h0l2.76,2.75h0a25,25,0,0,0,6.42-11,19.92,19.92,0,0,0,.23-12.17Z"></path><path class="cls-10" d="M895.4,1051a2.19,2.19,0,0,1-2.52,2.07c-1.84,0-3-1.38-3-3.44a3.41,3.41,0,0,1,3.22-3.68,1.91,1.91,0,0,1,1.6.46l-.23.46a2.86,2.86,0,0,0-1.37-.23c-1.61,0-2.53.92-2.53,3v.45c.46-.68,1.38-1.37,2.07-1.14a1.94,1.94,0,0,1,2.29,1.83C895.4,1050.75,895.4,1050.75,895.4,1051Zm-.69,0a1.56,1.56,0,0,0-1.6-1.6h-.23c-.92-.23-1.61.45-1.84,1.37s.46,1.61,1.38,1.84h.46a1.94,1.94,0,0,0,1.83-1.61Z"></path><path class="cls-10" d="M901.14,1051c0,1.15-.92,2.07-2.52,2.07a3.46,3.46,0,0,1-2.53-.92l.23-.46a4.13,4.13,0,0,0,2.07.92c1.14,0,1.83-.46,1.83-1.38s-.46-1.38-2.29-1.38h-1.61l.46-3.44h3.9v.69h-3.21l-.23,2.3h.92C900.22,1048.92,901.14,1049.83,901.14,1051Z"></path><path class="cls-10" d="M901.83,1047.77a1.47,1.47,0,0,1,1.38-1.84h.23a1.86,1.86,0,0,1,0,3.68,1.45,1.45,0,0,1-1.61-1.84Zm2.52,0c0-.92-.46-1.38-1.14-1.38s-1.15.46-1.15,1.38.46,1.38,1.15,1.38C904.12,1049.38,904.35,1048.69,904.35,1047.77Zm3.22-1.84h.69l-4.82,7.12h-.69Zm-1.38,5.28a1.47,1.47,0,0,1,1.38-1.83h.23a1.85,1.85,0,1,1-1.61,1.83Zm2.52,0c0-.92-.45-1.38-1.14-1.38s-1.15.46-1.15,1.38.46,1.38,1.15,1.38S908.71,1052.13,908.71,1051.21Z"></path><path class="cls-4" d="M1033.34,628.45c0,.46-.23.91-.23,1.37l-.92,2.53h-1.14l.68-2.76a1.26,1.26,0,0,1-.68-1.14,1.08,1.08,0,0,1,1.14-1.15,1.23,1.23,0,0,1,1.15,1.15Z"></path><path class="cls-8" d="M1136.62,863.47c0,.23-45.44.69-101.44.69s-101.45-.23-101.45-.69,45.45-.69,101.45-.69S1136.62,863,1136.62,863.47Z"></path><circle class="cls-4" cx="888.75" cy="418.67" r="17.21"></circle><path class="cls-10" d="M889,437a18.36,18.36,0,1,1,18.36-18.36A18.41,18.41,0,0,1,889,437Zm0-34.43A16.07,16.07,0,1,0,905,418.67C904.81,410,897.7,402.6,889,402.6Z"></path><path class="cls-10" d="M889.89,425.33v2.29h-1.6v-2.29a8.5,8.5,0,0,1-4.59-1.61l.92-1.84a5.59,5.59,0,0,0,3.67,1.38v-3.67c-2.07-.46-4.36-1.15-4.36-3.9,0-1.84,1.37-3.68,4.36-3.91v-2.06h1.6v2.06a7.75,7.75,0,0,1,3.91,1.15l-.69,1.84a8,8,0,0,0-3-1.15v3.9c2.07.46,4.36,1.15,4.36,3.67C894.26,423.49,892.88,425.1,889.89,425.33Zm-1.6-8v-3.44c-1.38.23-1.84.92-1.84,1.84s.69,1.37,1.84,1.6Zm3.44,4.36c0-.91-.92-1.37-2.07-1.6v3.44c1.61-.46,2.07-.92,2.07-1.84Z"></path><path class="cls-10" d="M1169.44,429.23a3.21,3.21,0,1,1-3.21-3.22,3.13,3.13,0,0,1,3.21,3.22Z"></path><path class="cls-10" d="M1169.44,419.82a3.21,3.21,0,1,1-3.21-3.22,3.13,3.13,0,0,1,3.21,3.22Z"></path><path class="cls-10" d="M1169.44,410.41a3.21,3.21,0,1,1-3.21-3.22,3.28,3.28,0,0,1,3.21,3.22Z"></path><path class="cls-10" d="M893.11,979.14c0,1.15-.92,2.07-2.53,2.07a3.44,3.44,0,0,1-2.52-.92l.46-.69a3.18,3.18,0,0,0,2.06.69c.92,0,1.61-.46,1.61-1.15s-.46-1.14-1.61-1.14h-.46v-.69l1.61-2.07h-3.21v-.92h4.36V975L891,977.08A2.2,2.2,0,0,1,893.11,979.14Z"></path><path class="cls-10" d="M898.62,979.14c0,1.15-.92,2.07-2.53,2.07a3.44,3.44,0,0,1-2.52-.92l.46-.69a3.16,3.16,0,0,0,2.06.69c.92,0,1.61-.46,1.61-1.15s-.46-1.14-2.07-1.14H894l.45-3.45h3.68v.92h-3l-.23,1.84h.69C897.93,977.08,898.62,978,898.62,979.14Z"></path><path class="cls-10" d="M899.3,976.16a1.62,1.62,0,1,1,3.22,0c.23.92-.46,1.61-1.38,1.84s-1.61-.46-1.84-1.38C899.07,976.62,899.07,976.39,899.3,976.16Zm2.3,0c0-.92-.46-1.38-.92-1.38s-.92.46-.92,1.38.23,1.15.92,1.15S901.6,977.08,901.6,976.16Zm3.21-1.84h.69L900.91,981h-.69Zm-1.37,5a1.74,1.74,0,0,1,1.83-1.37c.92,0,1.38.91,1.38,1.83a1.72,1.72,0,0,1-1.61,1.38,1.94,1.94,0,0,1-1.6-1.84Zm2.52,0a.94.94,0,1,0-1.84,0c0,.69.23,1.15.92,1.15s.92-.46.92-1.15Z"></path><g id="freepik--chart--inject-2"><path class="cls-9" d="M1088.19,572.44h28.46a10.24,10.24,0,0,1,10.33,10.1V738.61a10.29,10.29,0,0,1-10.33,10.33h-28.46a10.28,10.28,0,0,1-10.32-10.33V582.54A10.55,10.55,0,0,1,1088.19,572.44Z"></path><path class="cls-9" d="M935.11,676.41h27.77A10.68,10.68,0,0,1,973.44,687v59a10.68,10.68,0,0,1-10.56,10.56H935.11A10.68,10.68,0,0,1,924.55,746V687A10.53,10.53,0,0,1,935.11,676.41Z"></path><path class="cls-9" d="M1011.54,632.81h26.39a11.26,11.26,0,0,1,11.25,11.24V745.27a11.27,11.27,0,0,1-11.25,11.25h-26.39a11.27,11.27,0,0,1-11.25-11.25V644.05A11.26,11.26,0,0,1,1011.54,632.81Z"></path><path class="cls-10" d="M1108.85,514.15a6.74,6.74,0,0,1-1.15,1.6l-3.67,4.14-13.77,15.83-48,54.17-.46.69-.69-.46-30.06-19.74,1.37-.23-1.14,1.38c-24.79,28.92-47,55.31-63.58,74.59l-.46.46-.46-.46-23.87-17.67-6.42-4.82a7.93,7.93,0,0,1-2.07-1.84,8.26,8.26,0,0,1,2.3,1.61L923.4,628l24.33,17.21h-.92l63.12-74.82,1.15-1.38.46-.69.69.46,30.06,19.74-1.15.23L1089.8,535l14.23-15.6,3.9-4.13A1.53,1.53,0,0,1,1108.85,514.15Z"></path><path class="cls-10" d="M1110.46,551.33a92.19,92.19,0,0,1-.69-11.25c-.23-6.88-.23-16.52-.23-27.31l1.15.92-.92.23c-10.79,1.83-20.66,3.21-27.54,4.36a62.67,62.67,0,0,1-11.48,1.15A66,66,0,0,1,1082,516.9c7.11-1.37,16.75-3,27.54-4.82l.92-.23,1.15-.23v1.15c0,10.79,0,20.43-.23,27.31A89.07,89.07,0,0,1,1110.46,551.33Z"></path></g><path class="cls-11" d="M1001.9,407.19a34.41,34.41,0,0,1-2.53,3,8.7,8.7,0,0,0-1.83,3.9c-.23,2.75,1.83,4.59,3.44,6.66.92,1.37,2.06,2.29,2.06,4.13v.91a4.68,4.68,0,0,1-1.14,2.07,3.81,3.81,0,0,1-2.76,1.15h-.23a4.84,4.84,0,0,1-3-1.15l-7.12-7.11-7.11,7.11a4.81,4.81,0,0,1-1.38.92,3.87,3.87,0,0,1-1.6.23,3.81,3.81,0,0,1-2.76-1.15,4.24,4.24,0,0,1-1.15-2.75V392.05a4.84,4.84,0,0,1,1.15-3,4.23,4.23,0,0,1,2.76-1.14,3.8,3.8,0,0,1,2.75,1.14,4.37,4.37,0,0,1,1.15,3V415l13.08-13.31a3.8,3.8,0,0,1,3-1.15h0a3.93,3.93,0,0,1,3.91,4.13h0C1003,405.36,1002.59,406.28,1001.9,407.19Z"></path><path class="cls-11" d="M1071.67,424.87a3.8,3.8,0,0,1-1.15,2.75,4.22,4.22,0,0,1-2.75,1.15,3.81,3.81,0,0,1-2.76-1.15,4.28,4.28,0,0,1-1.14-2.75V414.54A16,16,0,0,1,1065,409a14.34,14.34,0,0,1,3-4.59,13.16,13.16,0,0,1,4.36-3,13.81,13.81,0,0,1,5.51-1.15,13.63,13.63,0,0,1,5.28,1.15,14.6,14.6,0,0,1,4.36,3,16,16,0,0,1,3,4.59,13.85,13.85,0,0,1,1.15,5.51v10.33a3.8,3.8,0,0,1-1.15,2.75,4.24,4.24,0,0,1-2.75,1.15,3.81,3.81,0,0,1-2.76-1.15,4.24,4.24,0,0,1-1.15-2.75V414.54a6.25,6.25,0,0,0-1.83-4.36,5.56,5.56,0,0,0-8.26,0,6.26,6.26,0,0,0-1.84,4.36l-.23,10.33Z"></path><path class="cls-11" d="M1048.72,415.69l6-13.09a4.73,4.73,0,0,1,.91-1.37c.46-.46.69-.69,1.15-.69a2.92,2.92,0,0,1,1.38-.23c.46,0,.92.23,1.6.23a4.81,4.81,0,0,1,1.38.92,1.62,1.62,0,0,1,.69,1.37,2.92,2.92,0,0,1,.23,1.38,5.85,5.85,0,0,1-.46,1.61l-9.41,20-.92,1.84a33.25,33.25,0,0,1-2.75,5.05,21.78,21.78,0,0,1-2.53,3.44,8.62,8.62,0,0,1-3,2.07,16.22,16.22,0,0,1-3.9.92h-.46a3.91,3.91,0,0,1-1.61-.23,4.72,4.72,0,0,1-1.14-.69A2.3,2.3,0,0,1,1035,437a2.92,2.92,0,0,1-.23-1.38,3.87,3.87,0,0,1,.23-1.6,2.3,2.3,0,0,1,.92-1.15c.45-.23.68-.69,1.14-.69a3.41,3.41,0,0,1,1.61-.23h.23c.69,0,1.38-.23,1.84-.23a2.31,2.31,0,0,0,1.14-.92c.23-.45.69-.68.92-1.37a13.56,13.56,0,0,1,.92-1.84l.92-2.52-9.18-19.05a3.32,3.32,0,0,1-.46-1.61,2.92,2.92,0,0,1,.23-1.38,4.8,4.8,0,0,1,.91-1.37,4,4,0,0,1,1.15-.92,3.41,3.41,0,0,1,1.61-.23,2.92,2.92,0,0,1,1.38.23,4.93,4.93,0,0,1,1.14.69,2.9,2.9,0,0,1,.92,1.37Z"></path><path class="cls-11" d="M1032.19,409.26a11.37,11.37,0,0,0-3-4.36,13.26,13.26,0,0,0-4.36-3,13.59,13.59,0,0,0-5.28-1.15,15.76,15.76,0,0,0-5.51,1.15,11.33,11.33,0,0,0-4.36,3,10.64,10.64,0,0,0-3,4.82,13.87,13.87,0,0,0-.92,5.51,15.8,15.8,0,0,0,1.15,5.51,14.41,14.41,0,0,0,3,4.59,13.57,13.57,0,0,0,4.36,3,13.85,13.85,0,0,0,5.51,1.15,13.59,13.59,0,0,0,5.28-1.15,15,15,0,0,0,4.36-3,10.69,10.69,0,0,0,3-4.82,15.44,15.44,0,0,0,.92-5.51A11.16,11.16,0,0,0,1032.19,409.26Zm-12.62,12.62a6.89,6.89,0,1,1,6.89-6.88A6.91,6.91,0,0,1,1019.57,421.88Z"></path><path class="cls-12" d="M1057.9,434.28h2.29c.23,0,0,0,0,.23v.23h-2.29v9.18h-.46c-.23,0,0,0,0-.23v-8.95h-1.61c-.23,0-.23,0-.23-.23v-.23h1.84v-2.53h.46v2.53Z"></path><path class="cls-12" d="M1061.57,439.33a3.32,3.32,0,0,0,.46,1.6,4.23,4.23,0,0,0,2.3,2.3,3.84,3.84,0,0,0,1.6.23h.92c.23,0,.69-.23.92-.23.23-.23.69-.23.92-.46l.68-.69h.23v.46a9.48,9.48,0,0,1-1.6,1.38,6.72,6.72,0,0,1-2.07.46,4.25,4.25,0,0,1-1.83-.46,4.13,4.13,0,0,1-1.61-1.15,9.74,9.74,0,0,1-1.15-1.61,5.42,5.42,0,0,1-.46-1.83,4.33,4.33,0,0,1,.46-1.84,4.13,4.13,0,0,1,1.15-1.61,9.74,9.74,0,0,1,1.61-1.14,5.3,5.3,0,0,1,1.83-.46,4.33,4.33,0,0,1,1.84.46,4,4,0,0,1,1.6,1.14,9.74,9.74,0,0,1,1.15,1.61,5.41,5.41,0,0,1,.46,1.84v.23h-.23l-9.18-.23Zm9-.46a3.32,3.32,0,0,0-.46-1.61,5,5,0,0,0-.91-1.38,4.76,4.76,0,0,0-1.38-.91,3.91,3.91,0,0,0-1.61-.23,3.41,3.41,0,0,0-1.61.23,4.86,4.86,0,0,0-1.37.91,4.81,4.81,0,0,0-.92,1.38,4.26,4.26,0,0,0-.46,1.61Z"></path><path class="cls-12" d="M1072.82,439.1h0c0,.69.23,1.14.23,1.83a5,5,0,0,0,.91,1.38,4.81,4.81,0,0,0,1.38.92,4.26,4.26,0,0,0,1.61.46,3.91,3.91,0,0,0,1.61-.23,4.91,4.91,0,0,0,1.37-.92h.46V443c-.23.23-.46.46-.69.46-.23.23-.46.23-.69.46-.23,0-.68.23-.91.23h-.92a4.33,4.33,0,0,1-1.84-.46,4,4,0,0,1-1.6-1.15,3.71,3.71,0,0,1-.92-1.61,5.36,5.36,0,0,1-.46-1.83v-.23a4.33,4.33,0,0,1,.46-1.84,10,10,0,0,1,.92-1.61,9.78,9.78,0,0,1,1.6-1.14,5.41,5.41,0,0,1,1.84-.46h.92c.23,0,.68.23.91.23s.46.23.69.46.46.23.69.46v.45h-.46a5.09,5.09,0,0,0-1.37-.91,3.91,3.91,0,0,0-1.61-.23,3.32,3.32,0,0,0-1.61.46,4.11,4.11,0,0,0-2.29,2.29,7.1,7.1,0,0,0-.23,2.07Z"></path><path class="cls-12" d="M1091.87,443.69h-.23v-5.05a3.41,3.41,0,0,0-.23-1.61l-.69-1.38a2.28,2.28,0,0,0-1.15-.91,5.72,5.72,0,0,0-3.21,0,4.17,4.17,0,0,0-2.3,2.29,3.91,3.91,0,0,0-.23,1.61h0v4.82h-.46V430.15h.46v6.65a5,5,0,0,1,.69-1.15c.23-.45.69-.68.92-.91.46-.23.69-.46,1.15-.69a2.92,2.92,0,0,1,1.38-.23,5.42,5.42,0,0,1,1.83.46c.46.23.92.69,1.38.92a4.64,4.64,0,0,1,.92,1.37,4.48,4.48,0,0,1,.23,1.84l-.46,5.28Z"></path></g><g id="freepik--Character--inject-2"><path class="cls-11" d="M671.4,1191.67a74.58,74.58,0,0,1-43.84,96.17,59.73,59.73,0,0,1-12.62,3.44,74.77,74.77,0,1,1,56.46-99.61Z"></path><path class="cls-11" d="M656.94,1198.1a57.1,57.1,0,1,1-73.68-33h.23A56.86,56.86,0,0,1,656.94,1198.1Z"></path><path class="cls-10" d="M654.64,1198.1c-.23-.23-.23-.46-.46-.92-.23-.69-.69-1.37-1.14-2.52a13.56,13.56,0,0,0-.92-1.84,9.26,9.26,0,0,0-1.15-2.06,38,38,0,0,0-3.21-5,56,56,0,0,0-11.25-11.94,56.76,56.76,0,0,0-72.07,1.38c-2.06,1.84-3.9,3.67-5.74,5.51-.91.92-1.6,2.06-2.52,3.21a29.32,29.32,0,0,0-2.29,3.44,75.77,75.77,0,0,0-4.14,7.35,85.46,85.46,0,0,0-3,8,56.13,56.13,0,0,0-2.07,17.44,55.27,55.27,0,0,0,12.63,33.28,53.09,53.09,0,0,0,13.08,11.71,40.13,40.13,0,0,0,7.57,4.13,51.62,51.62,0,0,0,7.81,2.75,47.52,47.52,0,0,0,16.06,2.07,56.52,56.52,0,0,0,55.09-46.36,55.81,55.81,0,0,0,.69-16.3,43,43,0,0,0-.92-5.74c-.23-.91-.23-1.6-.46-2.29l-.69-1.84a18.87,18.87,0,0,0-.69-2.52,1.38,1.38,0,0,0-.23-.92c.23.23.23.69.46.92l.92,2.52.69,1.84a8.18,8.18,0,0,1,.46,2.29,55,55,0,0,1,1.14,6,57.29,57.29,0,0,1-.45,16.53,58.16,58.16,0,0,1-26.63,39,59.26,59.26,0,0,1-37.41,8c-2.75-.46-5.51-.92-8.26-1.61a47.6,47.6,0,0,1-8-3,60.14,60.14,0,0,1-7.58-4.13,55.26,55.26,0,0,1-13.31-11.94,60.71,60.71,0,0,1-9.18-15.83,68.71,68.71,0,0,1-3.67-18.14,57.58,57.58,0,0,1,2.06-17.67,56.36,56.36,0,0,1,7.12-15.61,33.76,33.76,0,0,1,2.52-3.44,39.09,39.09,0,0,1,2.53-3.21,67.47,67.47,0,0,1,5.73-5.74,57.18,57.18,0,0,1,84.47,11,40.76,40.76,0,0,1,3.21,5.28,9,9,0,0,1,1.15,2.06,18.12,18.12,0,0,0,.68,1.84l.92,2.52C654.64,1197.41,654.64,1197.87,654.64,1198.1Z"></path><g class="cls-13"><path d="M654.64,1198.79c-.23.23-1.38-2.07-3.9-5.74a65,65,0,0,0-12.16-14,65.74,65.74,0,0,0-10.56-7.11,49.91,49.91,0,0,0-13.54-4.82c-2.53-.46-5.28-.92-7.81-1.15a49.53,49.53,0,0,0-8.26,0,51.61,51.61,0,0,0-8.26,1.38,56.33,56.33,0,0,0-8.26,2.75,82.39,82.39,0,0,0-7.81,3.9,67,67,0,0,0-6.88,5,45.1,45.1,0,0,0-5.74,5.74c-1.84,2.06-3.21,4.13-4.82,6.2a48.94,48.94,0,0,0-6.2,13.08,59.07,59.07,0,0,0-2.52,12.62,62.81,62.81,0,0,0,1.15,18.59c.91,4.36,1.83,6.66,1.37,6.89-.23.23-1.6-2.07-3-6.43a55.19,55.19,0,0,1-2.76-19.28,52.09,52.09,0,0,1,2.3-13.31,53,53,0,0,1,6.43-14.23,47.24,47.24,0,0,1,5.05-6.88,39,39,0,0,1,6.19-6.2,55.68,55.68,0,0,1,7.35-5.51c2.75-1.61,5.51-3,8.49-4.36a66.59,66.59,0,0,1,9-2.76,61.51,61.51,0,0,1,8.95-1.37,55.17,55.17,0,0,1,8.72,0,52.53,52.53,0,0,1,8.26,1.37,55.55,55.55,0,0,1,14.46,5.51,61,61,0,0,1,11,8,52.77,52.77,0,0,1,11.71,15.6C654.18,1196.26,654.87,1198.56,654.64,1198.79Z"></path></g><g class="cls-13"><path d="M619.3,1247.68l3.67,9.18-8.26,3.21-3.45-9c-8.26,2.75-17.21,3.21-23.18,1.38l.69-11.94a35.53,35.53,0,0,0,18.36-.46l-5.51-13.77c-10.09,1.38-21.34,2.3-26.16-9.41-3.44-8.72,0-18.82,12.39-25.25l-3.67-9.18,8.26-3.21,3.45,9a40.08,40.08,0,0,1,18.82-1.6l-.23,11.7a36.94,36.94,0,0,0-14.23.69l5.51,14c10.09-1.38,21.34-2.3,25.93,9.41C635.13,1231.15,631.69,1241,619.3,1247.68Zm-22.5-33.28-4.59-11.71c-3.9,2.76-4.82,5.74-3.67,8.49C589.46,1213.94,592.67,1214.63,596.8,1214.4Zm22,14.46c-1.15-3-4.13-3.45-8.26-3.45l4.59,11.48C618.84,1234.36,619.76,1231.38,618.84,1228.86Z"></path></g><rect class="cls-11" x="636.51" y="1078.98" width="166.17" height="30.07"></rect><path class="cls-10" d="M652.81,1109.51c-.46,0-.69-6.66-.69-14.92s.23-14.92.69-14.92.68,6.66.68,14.92S653,1109.51,652.81,1109.51Z"></path><path class="cls-10" d="M643.63,1109.51c-.46,0-.69-6.66-.69-14.92s.23-14.92.69-14.92.68,6.66.68,14.92S644.08,1109.51,643.63,1109.51Z"></path><path class="cls-10" d="M672.77,1109.51c-.46,0-.68-6.66-.68-14.92s.22-14.92.68-14.92.69,6.66.69,14.92S673.23,1109.51,672.77,1109.51Z"></path><path class="cls-10" d="M663.59,1109.51c-.46,0-.69-6.66-.69-14.92s.23-14.92.69-14.92.69,6.66.69,14.92S664.05,1109.51,663.59,1109.51Z"></path><path class="cls-10" d="M692.74,1109.51c-.46,0-.69-6.66-.69-14.92s.23-14.92.69-14.92.69,6.66.69,14.92S693,1109.51,692.74,1109.51Z"></path><path class="cls-10" d="M683.56,1109.51c-.46,0-.69-6.66-.69-14.92s.23-14.92.69-14.92.69,6.66.69,14.92S684,1109.51,683.56,1109.51Z"></path><path class="cls-10" d="M712.71,1109.51c-.46,0-.69-6.66-.69-14.92s.23-14.92.69-14.92.69,6.66.69,14.92S712.94,1109.51,712.71,1109.51Z"></path><path class="cls-10" d="M703.53,1109.51c-.46,0-.69-6.66-.69-14.92s.23-14.92.69-14.92.69,6.66.69,14.92S704,1109.51,703.53,1109.51Z"></path><path class="cls-10" d="M732.68,1109.51c-.46,0-.69-6.66-.69-14.92s.23-14.92.69-14.92.69,6.66.69,14.92S732.91,1109.51,732.68,1109.51Z"></path><path class="cls-10" d="M723.5,1109.51c-.46,0-.69-6.66-.69-14.92s.23-14.92.69-14.92.68,6.66.68,14.92S724,1109.51,723.5,1109.51Z"></path><path class="cls-10" d="M752.42,1109.51c-.46,0-.69-6.66-.69-14.92s.23-14.92.69-14.92.68,6.66.68,14.92S752.87,1109.51,752.42,1109.51Z"></path><path class="cls-10" d="M743.46,1109.51c-.45,0-.68-6.66-.68-14.92s.23-14.92.68-14.92.69,6.66.69,14.92S743.92,1109.51,743.46,1109.51Z"></path><path class="cls-10" d="M772.38,1109.51c-.46,0-.69-6.66-.69-14.92s.23-14.92.69-14.92.69,6.66.69,14.92S772.84,1109.51,772.38,1109.51Z"></path><path class="cls-10" d="M763.43,1109.51c-.46,0-.69-6.66-.69-14.92s.23-14.92.69-14.92.69,6.66.69,14.92S763.66,1109.51,763.43,1109.51Z"></path><path class="cls-10" d="M792.35,1109.51c-.46,0-.69-6.66-.69-14.92s.23-14.92.69-14.92.69,6.66.69,14.92S792.81,1109.51,792.35,1109.51Z"></path><path class="cls-10" d="M783.4,1109.51c-.46,0-.69-6.66-.69-14.92s.23-14.92.69-14.92.69,6.66.69,14.92S783.63,1109.51,783.4,1109.51Z"></path><path class="cls-10" d="M802.45,1079c0,.46-37.41.69-83.31.69s-83.32-.23-83.32-.69,37.41-.69,83.32-.69S802.45,1078.52,802.45,1079Z"></path><rect class="cls-11" x="625.49" y="1109.74" width="166.17" height="30.07"></rect><path class="cls-10" d="M642,1140c-.46,0-.69-6.65-.69-14.91s.23-14.92.69-14.92.69,6.65.69,14.92S642.25,1140,642,1140Z"></path><path class="cls-10" d="M632.84,1140c-.46,0-.69-6.65-.69-14.91s.23-14.92.69-14.92.69,6.65.69,14.92S633.07,1140,632.84,1140Z"></path><path class="cls-10" d="M661.76,1140c-.46,0-.69-6.65-.69-14.91s.23-14.92.69-14.92.69,6.65.69,14.92S662.22,1140,661.76,1140Z"></path><path class="cls-10" d="M652.81,1140c-.46,0-.69-6.65-.69-14.91s.23-14.92.69-14.92.68,6.65.68,14.92S653,1140,652.81,1140Z"></path><path class="cls-10" d="M681.72,1140c-.45,0-.68-6.65-.68-14.91s.23-14.92.68-14.92.69,6.65.69,14.92S682.18,1140,681.72,1140Z"></path><path class="cls-10" d="M672.77,1140c-.46,0-.68-6.65-.68-14.91s.22-14.92.68-14.92.69,6.65.69,14.92S673.23,1140,672.77,1140Z"></path><path class="cls-10" d="M701.69,1140c-.46,0-.69-6.65-.69-14.91s.23-14.92.69-14.92.69,6.65.69,14.92S702.15,1140,701.69,1140Z"></path><path class="cls-10" d="M692.74,1140c-.46,0-.69-6.65-.69-14.91s.23-14.92.69-14.92.69,6.65.69,14.92S693,1140,692.74,1140Z"></path><path class="cls-10" d="M721.66,1140c-.46,0-.69-6.65-.69-14.91s.23-14.92.69-14.92.69,6.65.69,14.92S722.12,1140,721.66,1140Z"></path><path class="cls-10" d="M712.71,1140c-.46,0-.69-6.65-.69-14.91s.23-14.92.69-14.92.69,6.65.69,14.92S712.94,1140,712.71,1140Z"></path><path class="cls-10" d="M741.63,1140c-.46,0-.69-6.65-.69-14.91s.23-14.92.69-14.92.69,6.65.69,14.92S742.09,1140,741.63,1140Z"></path><path class="cls-10" d="M732.68,1140c-.46,0-.69-6.65-.69-14.91s.23-14.92.69-14.92.69,6.65.69,14.92S732.91,1140,732.68,1140Z"></path><path class="cls-10" d="M761.6,1140c-.46,0-.69-6.65-.69-14.91s.23-14.92.69-14.92.68,6.65.68,14.92S762.05,1140,761.6,1140Z"></path><path class="cls-10" d="M752.42,1140c-.46,0-.69-6.65-.69-14.91s.23-14.92.69-14.92.68,6.65.68,14.92S752.87,1140,752.42,1140Z"></path><path class="cls-10" d="M781.56,1140c-.46,0-.69-6.65-.69-14.91s.23-14.92.69-14.92.69,6.65.69,14.92S782,1140,781.56,1140Z"></path><path class="cls-10" d="M772.38,1140c-.46,0-.69-6.65-.69-14.91s.23-14.92.69-14.92.69,6.65.69,14.92S772.84,1140,772.38,1140Z"></path><path class="cls-10" d="M791.66,1109.74c0,.46-37.41.69-83.31.69-46.13,0-83.54-.23-83.54-.69s37.41-.69,83.54-.69S791.66,1109.28,791.66,1109.74Z"></path><rect class="cls-11" x="639.26" y="1140.03" width="166.17" height="30.07"></rect><path class="cls-10" d="M655.33,1170.56c-.46,0-.69-6.66-.69-14.92s.23-14.92.69-14.92.69,6.66.69,14.92S655.79,1170.56,655.33,1170.56Z"></path><path class="cls-10" d="M646.38,1170.56c-.46,0-.69-6.66-.69-14.92s.23-14.92.69-14.92.69,6.66.69,14.92S646.84,1170.56,646.38,1170.56Z"></path><path class="cls-10" d="M675.3,1170.56c-.46,0-.69-6.66-.69-14.92s.23-14.92.69-14.92.69,6.66.69,14.92S675.76,1170.56,675.3,1170.56Z"></path><path class="cls-10" d="M666.35,1170.56c-.46,0-.69-6.66-.69-14.92s.23-14.92.69-14.92.69,6.66.69,14.92S666.81,1170.56,666.35,1170.56Z"></path><path class="cls-10" d="M695.27,1170.56c-.46,0-.69-6.66-.69-14.92s.23-14.92.69-14.92.68,6.66.68,14.92S695.73,1170.56,695.27,1170.56Z"></path><path class="cls-10" d="M686.31,1170.56c-.45,0-.68-6.66-.68-14.92s.23-14.92.68-14.92.69,6.66.69,14.92S686.54,1170.56,686.31,1170.56Z"></path><path class="cls-10" d="M715.23,1170.56c-.46,0-.68-6.66-.68-14.92s.22-14.92.68-14.92.69,6.66.69,14.92S715.69,1170.56,715.23,1170.56Z"></path><path class="cls-10" d="M706.28,1170.56c-.46,0-.69-6.66-.69-14.92s.23-14.92.69-14.92.69,6.66.69,14.92S706.51,1170.56,706.28,1170.56Z"></path><path class="cls-10" d="M735.2,1170.56c-.46,0-.69-6.66-.69-14.92s.23-14.92.69-14.92.69,6.66.69,14.92S735.66,1170.56,735.2,1170.56Z"></path><path class="cls-10" d="M726.25,1170.56c-.46,0-.69-6.66-.69-14.92s.23-14.92.69-14.92.69,6.66.69,14.92S726.48,1170.56,726.25,1170.56Z"></path><path class="cls-10" d="M755.17,1170.56c-.46,0-.69-6.66-.69-14.92s.23-14.92.69-14.92.69,6.66.69,14.92S755.63,1170.56,755.17,1170.56Z"></path><path class="cls-10" d="M746.22,1170.56c-.46,0-.69-6.66-.69-14.92s.23-14.92.69-14.92.69,6.66.69,14.92S746.45,1170.56,746.22,1170.56Z"></path><path class="cls-10" d="M775.14,1170.56c-.46,0-.69-6.66-.69-14.92s.23-14.92.69-14.92.69,6.66.69,14.92S775.6,1170.56,775.14,1170.56Z"></path><path class="cls-10" d="M766.19,1170.56c-.46,0-.69-6.66-.69-14.92s.23-14.92.69-14.92.68,6.66.68,14.92S766.42,1170.56,766.19,1170.56Z"></path><path class="cls-10" d="M795.1,1170.56c-.45,0-.68-6.66-.68-14.92s.23-14.92.68-14.92.69,6.66.69,14.92S795.56,1170.56,795.1,1170.56Z"></path><path class="cls-10" d="M786.15,1170.56c-.46,0-.68-6.66-.68-14.92s.22-14.92.68-14.92.69,6.66.69,14.92S786.38,1170.56,786.15,1170.56Z"></path><path class="cls-10" d="M805.2,1140c0,.46-37.41.69-83.54.69s-83.54-.23-83.54-.69,37.41-.68,83.54-.68S805.2,1139.8,805.2,1140Z"></path><rect class="cls-11" x="626.18" y="1170.1" width="166.17" height="30.07"></rect><path class="cls-10" d="M642.48,1200.4c-.46,0-.69-6.66-.69-14.92s.23-14.92.69-14.92.69,6.66.69,14.92S642.71,1200.4,642.48,1200.4Z"></path><path class="cls-10" d="M633.3,1200.4c-.46,0-.69-6.66-.69-14.92s.23-14.92.69-14.92.69,6.66.69,14.92S633.76,1200.4,633.3,1200.4Z"></path><path class="cls-10" d="M662.45,1200.4c-.46,0-.69-6.66-.69-14.92s.23-14.92.69-14.92.68,6.66.68,14.92S662.67,1200.4,662.45,1200.4Z"></path><path class="cls-10" d="M653.26,1200.4c-.45,0-.68-6.66-.68-14.92s.23-14.92.68-14.92.69,6.66.69,14.92S653.72,1200.4,653.26,1200.4Z"></path><path class="cls-10" d="M682.41,1200.4c-.46,0-.69-6.66-.69-14.92s.23-14.92.69-14.92.69,6.66.69,14.92S682.64,1200.4,682.41,1200.4Z"></path><path class="cls-10" d="M673.23,1200.4c-.46,0-.69-6.66-.69-14.92s.23-14.92.69-14.92.69,6.66.69,14.92S673.69,1200.4,673.23,1200.4Z"></path><path class="cls-10" d="M702.38,1200.4c-.46,0-.69-6.66-.69-14.92s.23-14.92.69-14.92.69,6.66.69,14.92S702.61,1200.4,702.38,1200.4Z"></path><path class="cls-10" d="M693.2,1200.4c-.46,0-.69-6.66-.69-14.92s.23-14.92.69-14.92.69,6.66.69,14.92S693.66,1200.4,693.2,1200.4Z"></path><path class="cls-10" d="M722.35,1200.4c-.46,0-.69-6.66-.69-14.92s.23-14.92.69-14.92.69,6.66.69,14.92S722.58,1200.4,722.35,1200.4Z"></path><path class="cls-10" d="M713.17,1200.4c-.46,0-.69-6.66-.69-14.92s.23-14.92.69-14.92.69,6.66.69,14.92S713.63,1200.4,713.17,1200.4Z"></path><path class="cls-10" d="M742.09,1200.4c-.46,0-.69-6.66-.69-14.92s.23-14.92.69-14.92.69,6.66.69,14.92S742.55,1200.4,742.09,1200.4Z"></path><path class="cls-10" d="M733.14,1200.4c-.46,0-.69-6.66-.69-14.92s.23-14.92.69-14.92.68,6.66.68,14.92S733.59,1200.4,733.14,1200.4Z"></path><path class="cls-10" d="M762.05,1200.4c-.45,0-.68-6.66-.68-14.92s.23-14.92.68-14.92.69,6.66.69,14.92S762.51,1200.4,762.05,1200.4Z"></path><path class="cls-10" d="M753.1,1200.4c-.46,0-.68-6.66-.68-14.92s.22-14.92.68-14.92.69,6.66.69,14.92S753.56,1200.4,753.1,1200.4Z"></path><path class="cls-10" d="M782,1200.4c-.46,0-.69-6.66-.69-14.92s.23-14.92.69-14.92.69,6.66.69,14.92S782.48,1200.4,782,1200.4Z"></path><path class="cls-10" d="M773.07,1200.4c-.46,0-.69-6.66-.69-14.92s.23-14.92.69-14.92.69,6.66.69,14.92S773.3,1200.4,773.07,1200.4Z"></path><path class="cls-10" d="M792.12,1170.1c0,.46-37.41.69-83.31.69-46.14,0-83.32-.23-83.32-.69s37.41-.69,83.32-.69S792.12,1169.64,792.12,1170.1Z"></path><rect class="cls-11" x="642.71" y="1200.63" width="166.17" height="30.07"></rect><path class="cls-10" d="M659,1230.92c-.46,0-.69-6.65-.69-14.92s.23-14.92.69-14.92.69,6.66.69,14.92S659.46,1230.92,659,1230.92Z"></path><path class="cls-10" d="M650.05,1230.92c-.46,0-.69-6.65-.69-14.92s.23-14.92.69-14.92.69,6.66.69,14.92S650.28,1230.92,650.05,1230.92Z"></path><path class="cls-10" d="M679,1230.92c-.46,0-.69-6.65-.69-14.92s.23-14.92.69-14.92.69,6.66.69,14.92S679.43,1230.92,679,1230.92Z"></path><path class="cls-10" d="M670,1230.92c-.46,0-.69-6.65-.69-14.92s.23-14.92.69-14.92.69,6.66.69,14.92S670.25,1230.92,670,1230.92Z"></path><path class="cls-10" d="M698.94,1230.92c-.46,0-.69-6.65-.69-14.92s.23-14.92.69-14.92.69,6.66.69,14.92S699.4,1230.92,698.94,1230.92Z"></path><path class="cls-10" d="M690,1230.92c-.46,0-.69-6.65-.69-14.92s.23-14.92.69-14.92.69,6.66.69,14.92S690.22,1230.92,690,1230.92Z"></path><path class="cls-10" d="M718.91,1230.92c-.46,0-.69-6.65-.69-14.92s.23-14.92.69-14.92.68,6.66.68,14.92S719.37,1230.92,718.91,1230.92Z"></path><path class="cls-10" d="M710,1230.92c-.45,0-.68-6.65-.68-14.92s.23-14.92.68-14.92.69,6.66.69,14.92S710.18,1230.92,710,1230.92Z"></path><path class="cls-10" d="M738.87,1230.92c-.46,0-.68-6.65-.68-14.92s.22-14.92.68-14.92.69,6.66.69,14.92S739.33,1230.92,738.87,1230.92Z"></path><path class="cls-10" d="M729.69,1230.92c-.46,0-.69-6.65-.69-14.92s.23-14.92.69-14.92.69,6.66.69,14.92C730.61,1224.27,730.15,1230.92,729.69,1230.92Z"></path><path class="cls-10" d="M758.84,1230.92c-.46,0-.69-6.65-.69-14.92s.23-14.92.69-14.92.69,6.66.69,14.92S759.3,1230.92,758.84,1230.92Z"></path><path class="cls-10" d="M749.66,1230.92c-.46,0-.69-6.65-.69-14.92s.23-14.92.69-14.92.69,6.66.69,14.92S750.12,1230.92,749.66,1230.92Z"></path><path class="cls-10" d="M778.81,1230.92c-.46,0-.69-6.65-.69-14.92s.23-14.92.69-14.92.69,6.66.69,14.92S779.27,1230.92,778.81,1230.92Z"></path><path class="cls-10" d="M769.63,1230.92c-.46,0-.69-6.65-.69-14.92s.23-14.92.69-14.92.69,6.66.69,14.92S770.09,1230.92,769.63,1230.92Z"></path><path class="cls-10" d="M798.78,1230.92c-.46,0-.69-6.65-.69-14.92s.23-14.92.69-14.92.69,6.66.69,14.92S799.24,1230.92,798.78,1230.92Z"></path><path class="cls-10" d="M789.6,1230.92c-.46,0-.69-6.65-.69-14.92s.23-14.92.69-14.92.68,6.66.68,14.92S790.06,1230.92,789.6,1230.92Z"></path><path class="cls-10" d="M808.88,1200.63c0,.45-37.42.68-83.32.68s-83.31-.23-83.31-.68,37.41-.69,83.31-.69S808.88,1200.17,808.88,1200.63Z"></path><rect class="cls-11" x="632.38" y="1231.15" width="166.17" height="30.07"></rect><path class="cls-10" d="M648.67,1261.45c-.45,0-.68-6.66-.68-14.92s.23-14.92.68-14.92.69,6.66.69,14.92S649.13,1261.45,648.67,1261.45Z"></path><path class="cls-10" d="M639.49,1261.45c-.46,0-.68-6.66-.68-14.92s.22-14.92.68-14.92.69,6.66.69,14.92S640,1261.45,639.49,1261.45Z"></path><path class="cls-10" d="M668.64,1261.45c-.46,0-.69-6.66-.69-14.92s.23-14.92.69-14.92.69,6.66.69,14.92S669.1,1261.45,668.64,1261.45Z"></path><path class="cls-10" d="M659.46,1261.45c-.46,0-.69-6.66-.69-14.92s.23-14.92.69-14.92.69,6.66.69,14.92S659.92,1261.45,659.46,1261.45Z"></path><path class="cls-10" d="M688.61,1261.45c-.46,0-.69-6.66-.69-14.92s.23-14.92.69-14.92.69,6.66.69,14.92S688.84,1261.45,688.61,1261.45Z"></path><path class="cls-10" d="M679.43,1261.45c-.46,0-.69-6.66-.69-14.92s.23-14.92.69-14.92.69,6.66.69,14.92S679.89,1261.45,679.43,1261.45Z"></path><path class="cls-10" d="M708.58,1261.45c-.46,0-.69-6.66-.69-14.92s.23-14.92.69-14.92.69,6.66.69,14.92S708.81,1261.45,708.58,1261.45Z"></path><path class="cls-10" d="M699.4,1261.45c-.46,0-.69-6.66-.69-14.92s.23-14.92.69-14.92.69,6.66.69,14.92S699.86,1261.45,699.4,1261.45Z"></path><path class="cls-10" d="M728.55,1261.45c-.46,0-.69-6.66-.69-14.92s.23-14.92.69-14.92.68,6.66.68,14.92S728.78,1261.45,728.55,1261.45Z"></path><path class="cls-10" d="M719.37,1261.45c-.46,0-.69-6.66-.69-14.92s.23-14.92.69-14.92.68,6.66.68,14.92S719.82,1261.45,719.37,1261.45Z"></path><path class="cls-10" d="M748.51,1261.45c-.46,0-.69-6.66-.69-14.92s.23-14.92.69-14.92.69,6.66.69,14.92S748.74,1261.45,748.51,1261.45Z"></path><path class="cls-10" d="M739.56,1261.45c-.46,0-.69-6.66-.69-14.92s.23-14.92.69-14.92.69,6.66.69,14.92C740,1254.79,739.79,1261.45,739.56,1261.45Z"></path><path class="cls-10" d="M768.48,1261.45c-.46,0-.69-6.66-.69-14.92s.23-14.92.69-14.92.69,6.66.69,14.92S768.71,1261.45,768.48,1261.45Z"></path><path class="cls-10" d="M759.3,1261.45c-.46,0-.69-6.66-.69-14.92s.23-14.92.69-14.92.69,6.66.69,14.92S759.76,1261.45,759.3,1261.45Z"></path><path class="cls-10" d="M788.45,1261.45c-.46,0-.69-6.66-.69-14.92s.23-14.92.69-14.92.69,6.66.69,14.92S788.68,1261.45,788.45,1261.45Z"></path><path class="cls-10" d="M779.27,1261.45c-.46,0-.69-6.66-.69-14.92s.23-14.92.69-14.92.69,6.66.69,14.92S779.73,1261.45,779.27,1261.45Z"></path><path class="cls-10" d="M798.55,1231.15c0,.46-37.41.69-83.55.69s-83.54-.23-83.54-.69,37.41-.69,83.54-.69C760.91,1230.46,798.55,1230.69,798.55,1231.15Z"></path><rect class="cls-11" x="619.3" y="1260.99" width="166.17" height="30.07"></rect><path class="cls-10" d="M635.59,1291.28c-.46,0-.69-6.65-.69-14.91s.23-14.92.69-14.92.69,6.65.69,14.92S636.05,1291.28,635.59,1291.28Z"></path><path class="cls-10" d="M626.64,1291.28c-.46,0-.69-6.65-.69-14.91s.23-14.92.69-14.92.69,6.65.69,14.92S626.87,1291.28,626.64,1291.28Z"></path><path class="cls-10" d="M655.56,1291.28c-.46,0-.69-6.65-.69-14.91s.23-14.92.69-14.92.69,6.65.69,14.92S656,1291.28,655.56,1291.28Z"></path><path class="cls-10" d="M646.61,1291.28c-.46,0-.69-6.65-.69-14.91s.23-14.92.69-14.92.69,6.65.69,14.92S646.84,1291.28,646.61,1291.28Z"></path><path class="cls-10" d="M675.53,1291.28c-.46,0-.69-6.65-.69-14.91s.23-14.92.69-14.92.69,6.65.69,14.92S676,1291.28,675.53,1291.28Z"></path><path class="cls-10" d="M666.35,1291.28c-.46,0-.69-6.65-.69-14.91s.23-14.92.69-14.92.69,6.65.69,14.92C667.27,1284.63,666.81,1291.28,666.35,1291.28Z"></path><path class="cls-10" d="M695.5,1291.28c-.46,0-.69-6.65-.69-14.91s.23-14.92.69-14.92.68,6.65.68,14.92S696,1291.28,695.5,1291.28Z"></path><path class="cls-10" d="M686.31,1291.28c-.45,0-.68-6.65-.68-14.91s.23-14.92.68-14.92.69,6.65.69,14.92S686.77,1291.28,686.31,1291.28Z"></path><path class="cls-10" d="M715.46,1291.28c-.46,0-.69-6.65-.69-14.91s.23-14.92.69-14.92.69,6.65.69,14.92S715.92,1291.28,715.46,1291.28Z"></path><path class="cls-10" d="M706.28,1291.28c-.46,0-.69-6.65-.69-14.91s.23-14.92.69-14.92.69,6.65.69,14.92S706.74,1291.28,706.28,1291.28Z"></path><path class="cls-10" d="M735.43,1291.28c-.46,0-.69-6.65-.69-14.91s.23-14.92.69-14.92.69,6.65.69,14.92S735.89,1291.28,735.43,1291.28Z"></path><path class="cls-10" d="M726.25,1291.28c-.46,0-.69-6.65-.69-14.91s.23-14.92.69-14.92.69,6.65.69,14.92S726.71,1291.28,726.25,1291.28Z"></path><path class="cls-10" d="M755.4,1291.28c-.46,0-.69-6.65-.69-14.91s.23-14.92.69-14.92.69,6.65.69,14.92S755.86,1291.28,755.4,1291.28Z"></path><path class="cls-10" d="M746.22,1291.28c-.46,0-.69-6.65-.69-14.91s.23-14.92.69-14.92.69,6.65.69,14.92S746.68,1291.28,746.22,1291.28Z"></path><path class="cls-10" d="M775.37,1291.28c-.46,0-.69-6.65-.69-14.91s.23-14.92.69-14.92.69,6.65.69,14.92S775.6,1291.28,775.37,1291.28Z"></path><path class="cls-10" d="M766.19,1291.28c-.46,0-.69-6.65-.69-14.91s.23-14.92.69-14.92.68,6.65.68,14.92S766.65,1291.28,766.19,1291.28Z"></path><path class="cls-10" d="M785.47,1261c0,.46-37.42.69-83.32.69-46.13,0-83.31-.23-83.31-.69s37.41-.69,83.31-.69S785.47,1260.76,785.47,1261Z"></path><g class="cls-13"><path d="M639.26,1140c24.79,6.2,51.19,7.35,76.66,5.51,25.48-1.6,51.18-5.51,76.89-5Z"></path></g><g class="cls-13"><path d="M640.64,1110c24.79,6.19,51.18,7.34,76.66,5.51,25.48-1.61,51.18-5.51,76.66-5Z"></path></g><g class="cls-13"><path d="M648.67,1170.33c24.79,6.2,51.19,7.34,76.66,5.51,25.48-1.61,51.18-5.51,76.66-5Z"></path></g><g class="cls-13"><path d="M642.25,1200.4c24.79,6.19,51.18,7.34,76.66,5.5,25.47-1.6,51.18-5.5,76.88-5Z"></path></g><g class="cls-13"><path d="M644.08,1230.46c24.79,6.2,51.19,7.35,76.66,5.51,25.48-1.61,51.18-5.51,76.66-5Z"></path></g><g class="cls-13"><path d="M636.05,1261c24.79,6.19,51.18,7.34,76.66,5.51s51.18-5.51,76.66-5Z"></path></g><path class="cls-4" d="M639.49,1099.64c-.46,0-.68-3.67-.68-8.26s.22-8.27.68-8.27.69,3.68.69,8.27S640,1099.64,639.49,1099.64Z"></path><path class="cls-4" d="M628.94,1132c-.46,0-.69-3.9-.69-9s.23-9,.69-9,.68,3.9.68,9S629.4,1132,628.94,1132Z"></path><path class="cls-4" d="M643.85,1163c-.45,0-.68-3.45-.68-7.81s.23-7.8.68-7.8.69,3.44.69,7.8S644.31,1163,643.85,1163Z"></path><path class="cls-4" d="M628.71,1191.45c-.46,0-.69-3.22-.69-7.12s.23-7.11.69-7.11.69,3.21.69,7.11C629.4,1188.46,628.94,1191.45,628.71,1191.45Z"></path><path class="cls-4" d="M689.53,1112.26c0,.46-12.17.69-27.31.69s-27.32-.23-27.32-.69,12.17-.69,27.32-.69C677.13,1111.57,689.53,1111.8,689.53,1112.26Z"></path><path class="cls-4" d="M707.2,1083.11c0,.46-12.39.69-27.54.69s-27.54-.23-27.54-.69,12.39-.68,27.54-.68S707.2,1082.88,707.2,1083.11Z"></path><path class="cls-4" d="M733.82,1083.57c0,.46-4.13.69-9,.69-5,0-9-.23-9-.69s4.13-.69,9-.69S733.82,1083.11,733.82,1083.57Z"></path><path class="cls-4" d="M645.23,1229.77a127.48,127.48,0,0,1,0-23A127.45,127.45,0,0,1,645.23,1229.77Z"></path><path class="cls-4" d="M771.24,1197c0,.23-30.3.46-67.48.46s-67.48-.23-67.48-.46,30.3-.46,67.48-.46C741.17,1196.49,771.24,1196.72,771.24,1197Z"></path><path class="cls-4" d="M744.38,1258c0,.23-23.87.46-53.25.46s-53.24-.23-53.24-.46,23.87-.45,53.24-.45S744.38,1257.77,744.38,1258Z"></path><path class="cls-4" d="M621.59,1285.32a41.65,41.65,0,0,1,0-13.09A41.65,41.65,0,0,1,621.59,1285.32Z"></path><path class="cls-4" d="M739.1,1288.07c0,.23-24.78.46-55.31.46s-55.31-.23-55.31-.46,24.78-.46,55.31-.46C714.32,1287.38,739.1,1287.61,739.1,1288.07Z"></path><path class="cls-10" d="M619.3,1291.05v-8.26c0-5.28-.23-12.85-.23-22.26v-.46h12.39l-.46.46V1230h11.48l-.46.46v-30.52l.46.46H626v-.46c0-9.18.23-16.76.23-22v-7.57a.23.23,0,0,1-.23-.23l.23-.23a.23.23,0,0,1,0,.46v1.61c0,1.37,0,3.44.23,6,0,5.28,0,12.86.23,22l-.46-.46h16.53v31.44H631.23l.46-.46V1261h-.46l-11.93-.23.46-.46c0,9.18-.23,16.75-.23,22.26a48.07,48.07,0,0,1-.23,6.2v1.61C619.53,1290.82,619.53,1291.05,619.3,1291.05Z"></path><g class="cls-13"><path d="M800.38,1076.46l-131,2.06a211.63,211.63,0,0,0,97.77,30.53c-2.29,45,18.82,88.13,22.5,133.12a16.3,16.3,0,0,0,1.37,6.42,5.51,5.51,0,0,0,5,3.22c3.45-.46,4.59-4.82,4.82-8.27A944.58,944.58,0,0,0,800.38,1076.46Z"></path></g></g><path class="cls-10" d="M748.51,603.66c3.91,8.72,14.46,12.85,18.13,21.57,2.76,6.43,1.38,13.54,1.61,20.43s3.44,14.92,10.1,16.07L855.93,678c26.85,9.41,54.62,18.82,83.08,17.44,28.46-1.6,58.07-16.52,67.94-43.37a16.84,16.84,0,0,1-11.25-4.36,27.25,27.25,0,0,0,14-19.05c-5.28,3.21-12.39-.23-15.15-5.74s-1.83-11.94-.46-17.9S998,593.33,998,587.13a26,26,0,0,0-18.82-24.55c10.09-8.73,10.09-26.4,0-35.12-4.59-4.13-10.79-6.2-16.07-9.18a57.43,57.43,0,0,1-8.49-6.2l-13.09-13.77c-10.09-11.93-19.5-24.33-34.42-28-13.31-3.21-27.31,1.84-41.09,1.61-10.09-.23-19.73-3.45-29.6-3.9-10.1-.46-21.35,2.06-26.86,10.55-3.21,5.05-4.13,11.25-7.34,16.07-6.66,10.1-22.26,12.16-27.54,23.18-4.36,8.72,0,19.51-1.61,29.15-1.61,10.56-9.87,18.82-16.75,27.08C749.66,582.31,744.15,593.79,748.51,603.66Z"></path><path class="cls-14" d="M970,616.28c-1.83-25.47-22.72-20.65-29.37-18.59l-1.84-31.9c-.92-45.67-28-83.09-73.67-81l-4.13.46a81.43,81.43,0,0,0-73,83.08c.92,39.48,2.52,83.09,5,104.2,5.05,43.38,49.34,45.68,49.34,45.68L843.53,790,947,718.19l-4.13-76.43C949.11,642.45,971.83,642,970,616.28Z"></path><path class="cls-10" d="M810,510.71s3,5.27,14.23,12.62c7.81,5.28,36-5.51,52.56-12.62a31.22,31.22,0,0,1,31.22,3.9,13.36,13.36,0,0,1,2.52,2.52,16.88,16.88,0,0,1,3,14.69c-.91,5-3,9.87-4.13,15.15-2.06,9.41-.92,19,0,28.46,1.38,13.31,3,27.31,10.33,38.56,3.44,5.28,10.56,10.32,15.61,4.13a12.61,12.61,0,0,0,2.52-9.41c-.92-9.18,6.89-13.77,10.56-20.66,3-5.51,3.21-12.16,3-18.59-.68-20.66-5.73-41.54-17-59.21-11.25-17.45-28.46-26.4-48.66-30.76-16.75-3.67-43.83,3.21-61.28,12.4-11.47,6.19-25,22.72-20,25Z"></path><path class="cls-10" d="M927.76,502.67a60.87,60.87,0,0,0-35.57,3.22c-10.56,4.36-19.51,11.47-30.07,15.83-12.39,5.28-20.65,7.35-33.51,3.9l-.68-.23c-8.73-3-13.32-13.54-11.25-22.49s9-16.06,16.75-21.11c14.92-9,33.51-10.33,50.27-6C900.68,480.41,915.6,490.51,927.76,502.67Z"></path><path class="cls-15" d="M681.72,1034.46s-3,.23-12.39,4.82-51.64,34.65-51.64,34.65-9.87,5.74-13.08,4.82c-3.44-.91-6.2-8.26-6.2-8.26s-9.41,4.82-13.77,3.21c-4.13-1.6-5-10.32-5-10.32s-9.18,1.83-13.08-3.45a13.93,13.93,0,0,1-2.53-10.78s-10.55,4.82-13.54,2.52-4.82-9.41-3.67-15.61,24.33-30.75,31.67-36.26,32.14-20.66,32.14-20.66l6.65-2.06s8.26-1.84,11.71-2.07,12.39.92,19.28,4.36,25.7,5.74,25.7,5.74Z"></path><path class="cls-16" d="M598.41,1068.65a16.11,16.11,0,0,1,1.84-4.59,13.79,13.79,0,0,1,4.36-5.27,29.85,29.85,0,0,1-3.22,6,17.88,17.88,0,0,0-2.06,4.13c-.46,1.15-.46,1.84-.69,1.84C598.18,1070.72,598.18,1070,598.41,1068.65Z"></path><path class="cls-16" d="M585.1,1057a18.13,18.13,0,0,1,6.88-6.89c.23.23-3,3.22-5.73,7.58-1.61,2.75-3.45,5.51-5.28,8A27.74,27.74,0,0,1,585.1,1057Z"></path><path class="cls-16" d="M564,1050.52a26.7,26.7,0,0,1,10.33-17.9c.23.23-3,3.44-6,8.49-2.75,4.82-3.9,9.41-4.36,9.41Z"></path><path class="cls-16" d="M576.15,1024.59a37,37,0,0,1-.46,7.11,23.21,23.21,0,0,1,.69-14.23A24.39,24.39,0,0,1,576.15,1024.59Z"></path><path class="cls-10" d="M777.89,1160.23s17,115.22,23.87,137.48h40.17L831.6,1152.43H791.66Z"></path><path class="cls-10" d="M800.61,1152.43s11.48,65,15.84,95a461.35,461.35,0,0,0,9.64,50.26h197.84s14.46-36.72,17-61-23-84.23-23-84.23Z"></path><path class="cls-10" d="M940.85,635.1a245.68,245.68,0,0,1-13.54-53c-2.53-18.59-.92-38.32,7.8-55.08.92-1.84-5.05-17.67-3-17.9,2.76-.46,11.71,16.52,12.86,19,7.11,16.75,8.72,35.34,7.11,53.48-1.83,18.13-6.65,35.8-11.24,53.47"></path><path class="cls-8" d="M843.53,732.65c43.84-.69,53.94-37.42,53.94-37.42A107.75,107.75,0,0,1,842.61,718Z"></path><path class="cls-10" d="M803.37,601.82c0-3.21,2.52-6.19,5.74-6.19a6.18,6.18,0,0,1,6.65,5.73v.23a5.88,5.88,0,0,1-5.74,6,6.18,6.18,0,0,1-6.65-5.74Z"></path><path class="cls-10" d="M801.53,581.63a16,16,0,0,1,9.41-4.14,15.55,15.55,0,0,1,10.1,2.07c2.3,1.38,3.21,2.75,3,3.21-.68.92-6-1.83-12.62-1.14s-11,4.59-11.93,3.9C799,585.07,799.47,583.46,801.53,581.63Z"></path><path class="cls-10" d="M863.73,601.82c0-3.21,2.52-6.19,5.74-6.19a6.18,6.18,0,0,1,6.65,5.73v.23a6.24,6.24,0,0,1-5.73,6.2,6.54,6.54,0,0,1-6.66-6Z"></path><path class="cls-10" d="M867.17,577.49a17.63,17.63,0,0,1,9.41-4.13,15.53,15.53,0,0,1,10.1,2.07c2.3,1.38,3.21,2.75,3,3.21-.68.92-6-1.83-12.62-1.15s-11,4.59-11.93,3.91C864.88,580.94,865.34,579.33,867.17,577.49Z"></path><path class="cls-10" d="M835.73,636a6.52,6.52,0,0,1-3,0,3.92,3.92,0,0,1-3-2.29,10.14,10.14,0,0,1,.23-6.89c1.15-4.36,2.3-9,3.44-13.54,5.05-19.28,9.87-34.66,10.56-34.43s-2.75,15.84-7.8,35.12c-1.38,4.82-2.53,9.18-3.67,13.54a10.19,10.19,0,0,0-.69,5.28c.46,1.14,2.06,1.37,3.9,1.37,6.88.23,11,.46,11,.92S842.38,635.79,835.73,636Z"></path><path class="cls-10" d="M868.32,642.22a15.45,15.45,0,0,1-4.59,11,18.43,18.43,0,0,1-11.25,5.28c-3.21.23-5.05-.46-5.05-.92,0-.91,7.81-1.14,13.55-6.88s4.82-13.08,6-13.08C867.17,637.63,868.32,639.23,868.32,642.22Z"></path><path class="cls-10" d="M866.48,550.18a26.27,26.27,0,0,1,23.41.23c2.76,1.38,3.91,3,3.68,3.9-.69,1.84-7.35.23-15.38.23-8-.23-14.46,1.38-15.38-.23C862.35,553.17,863.73,551.56,866.48,550.18Z"></path><path class="cls-10" d="M801.53,558.67a16.91,16.91,0,0,1,18.13-2.52c2.3,1.15,3,2.75,2.76,3.44-.92,1.84-5.74,1.15-11.25,1.84s-9.87,2.75-11.25,1.38C799.24,562.12,799.7,560.51,801.53,558.67Z"></path><path class="cls-8" d="M951,630.74a5.09,5.09,0,0,0,4.81.46c4.14-1.61,6.89-7.34,6.66-13.54a17.48,17.48,0,0,0-2.52-8.26,7.16,7.16,0,0,0-5.74-4.13,4,4,0,0,0-2.76.91,4.53,4.53,0,0,0-1.14,2.07c-.23,1.15.46,1.83.46,1.61a6.07,6.07,0,0,1,.23-1.61,2.62,2.62,0,0,1,3-1.61,6,6,0,0,1,4.13,3.67,20.68,20.68,0,0,1,2.07,7.35c.23,5.51-2.07,10.56-5,11.93a5.66,5.66,0,0,1-3.91.23,3.13,3.13,0,0,1-1.37-.69A2.5,2.5,0,0,0,951,630.74Z"></path><path class="cls-9" d="M865.57,474.21A58.74,58.74,0,0,0,855,480a41,41,0,0,0-10.56,10.33,42.22,42.22,0,0,0-6,13.54,107.86,107.86,0,0,0-2.06,11.93c-.46,3.45-.46,6.2-.69,8.27a13,13,0,0,1-.23,3,13,13,0,0,1-.23-3c0-1.84,0-4.82.23-8.27a70.48,70.48,0,0,1,1.84-12.16,38,38,0,0,1,17-24.56,62.89,62.89,0,0,1,11-5.74,46.32,46.32,0,0,1,8-2.06,13,13,0,0,1,3-.23A97.85,97.85,0,0,0,865.57,474.21Z"></path><path class="cls-9" d="M846.52,470.54l-2.76,1.38L840.09,474a38.61,38.61,0,0,0-14.69,17.91,29.36,29.36,0,0,0-2.06,6.42,28.86,28.86,0,0,0-.92,6.2,46,46,0,0,0-.23,5.74,34.32,34.32,0,0,0,.46,4.82,63.75,63.75,0,0,0,2.75,9.41A25.09,25.09,0,0,1,824,522a11.47,11.47,0,0,1-1.14-3,28,28,0,0,1-1.15-4.13c-.23-1.61-.46-3.45-.69-5.05a47.91,47.91,0,0,1,.23-5.74,61.81,61.81,0,0,1,.92-6.43,38,38,0,0,1,2.29-6.65,38.4,38.4,0,0,1,15.38-18.13l3.67-1.84a11.55,11.55,0,0,1,3-1.15c.91-.23,1.6-.46,2.52-.69C848.12,469.62,847.43,470.08,846.52,470.54Z"></path><path class="cls-9" d="M836,763.63l6.42-19.74,2.53,12.63,105.58-55.78,14.91,21.81s42,23.41,61.06,46.36,28,55.08,26.62,95c-1.84,46.13-1.84,61.05-6.43,92s.69,159.29-4.36,183.84c-5.28,24.79-14.46,25.25-36,23.41S783.63,1174,783.63,1174s-8.49.69-11.71-15.15,21.58-237.77,29.38-260c7.81-22,28.46-112.23,28.46-116.36Z"></path><g class="cls-13"><path d="M786.61,1066.59a25.71,25.71,0,0,0,8.95,4.59,158.06,158.06,0,0,0,32.82,5c26.4,2.06,74.6,8.26,100.07.23,39.25-12.4,51.18-49.35,66.56-87.45s24.79-71.61,34.43-118.2l-15.38-5.73c-20.2,32.82-40.16,65.64-61.51,97.77-9.64,14.69-19.74,29.15-32.59,41.31-32.59,31-79.18,42.23-123.94,47.05-4.59.46-10.33,1.61-12.16,6.2A9.8,9.8,0,0,0,786.61,1066.59Z"></path></g><path class="cls-9" d="M990.88,762.25c-32.82-13.08-78.49,29.38-78.49,29.38L841.93,956c-11.94-.69-23.19,11.71-36.27,15.15-13.08,3.67-105.8,8.49-105.8,8.49l-33.28-1.14c-16.07,35.57,1.6,77.11,1.6,77.11s23.64,4.13,48,8.72,148.27,2.76,188.2-5,129.45-199,130.6-201C1044.36,841.44,1023.7,775.34,990.88,762.25Z"></path><path class="cls-10" d="M696.18,1059.47c-.91-2.75-1.6-5.73-2.29-8.72a114.84,114.84,0,0,1-2.53-29.38,125.09,125.09,0,0,1,4.82-29.14c.92-2.76,1.84-5.74,3-8.5.46-1.14.92-2.06,1.37-3a15.92,15.92,0,0,1-.91,3.21c-.69,2.07-1.61,4.82-2.53,8.5a136.07,136.07,0,0,0-4.59,28.91c-.23,5.28,0,10.79.23,16.07.46,5,1.15,9.41,1.84,13.08s1.37,6.66,1.6,9a11.39,11.39,0,0,1,.92,3C696.87,1061.54,696.41,1060.39,696.18,1059.47Z"></path><path class="cls-10" d="M911.24,794.84l-3.67,8.73-14,32.82c-12.17,28.46-29.61,69.54-51.19,119.8l-.22.23h-.23A32.47,32.47,0,0,0,826.78,961c-4.82,2.76-9.64,5.74-14.69,8.27a27.25,27.25,0,0,1-8.26,2.75c-3,.46-5.74.92-8.73,1.38-5.73.68-11.93,1.14-17.9,1.83-24.33,2.07-50.26,3.67-76.88,5.28h0L667,979.37l.68-.46a84.92,84.92,0,0,0-6.65,37.65,127.15,127.15,0,0,0,8,39l-.46-.46,21.12,3.91,23.18,4.36a157,157,0,0,0,22.95,2.52c15.38.69,30.76.69,45.44.69s29.38-.46,43.84-.92,28.46-1.15,42-2.29c6.89-.46,13.54-1.15,20.2-1.84a136.31,136.31,0,0,0,19.28-3.21,30.14,30.14,0,0,0,8.26-4.82,59.75,59.75,0,0,0,7.12-6.2,176.18,176.18,0,0,0,12.39-13.77,509.09,509.09,0,0,0,37.41-56.23c21.12-35.81,36.26-65.64,46.82-86.3l11.94-23.87c1.37-2.75,2.29-4.82,3-6.2a21.68,21.68,0,0,1,1.15-2.06s-1.38,3-3.9,8.49-6.66,13.54-11.71,24.1c-10.33,20.66-25.48,50.72-46.59,86.53a493.8,493.8,0,0,1-37.64,56.46,179.54,179.54,0,0,1-12.39,14c-2.3,2.29-4.82,4.36-7.35,6.42a30.86,30.86,0,0,1-8.49,4.82,138.07,138.07,0,0,1-19.51,3.22c-6.66.69-13.31,1.37-20.2,1.83-13.77,1.15-27.77,1.84-42,2.3-14.46.46-28.92.92-44.07.92-14.91,0-30.06,0-45.67-.69a155.36,155.36,0,0,1-23.18-2.53l-23.18-4.36-21.12-3.9h-.23v-.23a128.91,128.91,0,0,1-8.26-39.48,87.66,87.66,0,0,1,6.43-38.32l.23-.46h.46l33.28,1.14h0c26.85-1.37,52.56-3,76.88-5,6.2-.45,12.17-1.14,17.91-1.83a47.16,47.16,0,0,0,16.75-3.9c5.05-2.3,9.87-5.51,14.69-8.27a31.23,31.23,0,0,1,15.61-4.82l-.46.23c21.57-50,39.24-91.11,51.64-119.57l14.46-32.82,4.13-8.27a25.74,25.74,0,0,1,1.15-3A25.74,25.74,0,0,0,911.24,794.84Z"></path><path class="cls-10" d="M922.49,778.09a12.85,12.85,0,0,1,2.52-2.53,57.89,57.89,0,0,1,10.1-8,64.1,64.1,0,0,1,79.18,7.81,55.29,55.29,0,0,1,8.26,9.86c.92,1.38,1.38,2.3,1.84,3a1.76,1.76,0,0,1,.46,1.15c-.92-1.15-1.84-2.53-2.76-3.91a67,67,0,0,0-8.49-9.64A61.13,61.13,0,0,0,998,765a63,63,0,0,0-45.22-4.59A61.76,61.76,0,0,0,935.34,768a68.27,68.27,0,0,0-10.33,7.8c-2.3,2.07-3.44,3.22-3.44,3.22A1.8,1.8,0,0,1,922.49,778.09Z"></path><path class="cls-10" d="M847.66,969.5a96,96,0,0,1,4.59,13.78A97.37,97.37,0,0,1,846.52,970a105.86,105.86,0,0,1-4.59-13.77A56.76,56.76,0,0,1,847.66,969.5Z"></path><path class="cls-10" d="M678.05,989.7a3,3,0,0,0,.23,2.76,3.17,3.17,0,0,0,3,1.37,2.94,2.94,0,0,0,2.29-2.52,3,3,0,0,0-.69-2.76,3.9,3.9,0,0,0-2.52-1.14,1.34,1.34,0,0,1,.92-.23,4.63,4.63,0,0,1,2.52.69,4.21,4.21,0,0,1,1.15,3.67,4.48,4.48,0,0,1-3.22,3.44,4.23,4.23,0,0,1-4.13-1.84,3.93,3.93,0,0,1,0-3.9,4.69,4.69,0,0,1,1.84-1.83c.69-.23.92,0,.92,0A5.09,5.09,0,0,0,678.05,989.7Z"></path><path class="cls-10" d="M844.68,761.34l6.43-4.14.46-.23v.46c1.6,6.66,3,16.53,5.27,28l-.91-.23c9.64-6.42,21.57-13.31,34-20.88l26.17-16.07c8.26-4.59,15.61-8.72,21.8-12.16s11.48-6,14.92-7.8l4.13-2.07,1.38-.69c-.46.23-.92.69-1.38.92l-3.9,2.29L938.32,737c-6.2,3.44-13.77,7.57-21.8,12.62-8,4.82-16.76,10.56-26.17,16.07-12.62,7.57-24.33,14.68-34,20.88l-.69.46-.23-.69c-2.3-11.7-3.45-21.57-4.82-28.23l.46.23-6.66,3.9a8.56,8.56,0,0,1-2.52,1.15A9.12,9.12,0,0,1,844.68,761.34Z"></path><g class="cls-13"><path d="M856.16,785.66l-5.51-26.85-.92,38.33c14.46-4.59,26.85-13.77,39-22.72l55.08-41.09Z"></path></g><path class="cls-8" d="M341.35,769.37c-45,3.21-58.06-29.38-58.06-29.38a108.19,108.19,0,0,0,58.52,18.36Z"></path><path class="cls-10" d="M198.14,827a13.67,13.67,0,0,1,2.52-1.38,23.21,23.21,0,0,1,3.45-1.61,52.25,52.25,0,0,1,9.63-3,56.33,56.33,0,0,1,24.79.23,34.28,34.28,0,0,1,9.64,3.44,24.48,24.48,0,0,1,3.44,1.84,16.09,16.09,0,0,1,2.53,1.6,12.18,12.18,0,0,1,2.06,1.61c-.22.23-3.21-1.84-8.49-3.9a42.67,42.67,0,0,0-9.64-3,59.36,59.36,0,0,0-24.33-.22,65,65,0,0,0-9.63,2.75c-5.28,2.07-8.27,3.9-8.5,3.67A6.67,6.67,0,0,1,198.14,827Z"></path><polygon class="cls-7" points="1000.29 1208.43 1000.29 1305.51 1142.36 1305.51 1299.12 1305.51 1299.12 1208.43 1000.29 1208.43"></polygon><polygon class="cls-8" points="987.67 1181.12 987.67 1208.43 1309.45 1208.43 1309.45 1181.12 1142.36 1181.12 987.67 1181.12"></polygon><polygon class="cls-8" points="1148.56 1305.51 1299.12 1305.51 1299.12 1208.43 1309.45 1208.43 1309.45 1181.12 1142.36 1181.12 1142.36 1205.9 1148.56 1305.51"></polygon><rect class="cls-8" x="1042.06" y="1224.04" width="60.59" height="14.69"></rect><rect class="cls-4" x="1034.26" y="1256.86" width="77.81" height="30.98"></rect><polygon class="cls-7" points="1009.47 1084.26 1009.47 1181.35 1151.54 1181.35 1308.3 1181.35 1308.3 1084.26 1009.47 1084.26"></polygon><polygon class="cls-8" points="996.85 1056.95 996.85 1084.26 1318.63 1084.26 1318.63 1056.95 1151.54 1056.95 996.85 1056.95"></polygon><polygon class="cls-8" points="1157.74 1181.35 1308.3 1181.35 1308.3 1084.26 1318.63 1084.26 1318.63 1056.95 1151.54 1056.95 1151.54 1081.74 1157.74 1181.35"></polygon><rect class="cls-8" x="1051.24" y="1099.87" width="60.59" height="14.69"></rect><rect class="cls-4" x="1043.44" y="1132.69" width="77.81" height="30.98"></rect><path class="cls-17" d="M376,912.81a79.81,79.81,0,0,0-8.95-36.95l-32.82-62c-8.26-.91-17-2.06-25-2.75a676.29,676.29,0,0,0-80.79.23c-13.08,1.61-26.85,6.43-41.08,13.08-1.84,1.61-14,16.3-8,35.81,30.06,99.6,35.57,150.1,32.13,194.39,55.31,7.12,143.91,20.66,160.89,10.56C349.85,976.62,376,950.68,376,912.81Z"></path><path class="cls-18" d="M376,912.81a79.81,79.81,0,0,0-8.95-36.95l-32.82-62c-8.26-.91-17-2.06-25-2.75a676.29,676.29,0,0,0-80.79.23c-13.08,1.61-26.85,6.43-41.08,13.08-1.84,1.61-14,16.3-8,35.81,30.06,99.6,35.57,150.1,32.13,194.39,55.31,7.12,143.91,20.66,160.89,10.56C349.85,976.62,376,950.68,376,912.81Z"></path><g class="cls-13"><path d="M279.39,970.42c17.9-1.83,34.65-14,41.54-30.75.92,9.64-3.67,20.65-13.31,27.31-9.41,6.43-18.59,4.82-28.23,3.44"></path></g><path class="cls-15" d="M539.2,1004.16s4.36-4.82,14.23-7.8c9.87-3.22,38.33-4.82,50.72-.92,12.39,4.13,41.31,32.82,41.31,32.82s-.46,8-16.06,3.44c-15.61-4.36-33.74-19.51-33.74-19.51s-19.51,25.25-31.22,28c-11.47,2.75-27.31,8.72-27.31,8.72Z"></path><path class="cls-15" d="M655.79,1050.75s5.05-.23,6-4.59S645,1015.87,639,1019.08s3.91,22.49,3.91,22.49-15.84-15.15-21.81-9.87c-6,5.51,12.86,22.27,12.86,22.27s-17.68-16.76-22.73-10.56,6.66,20.88,6.66,20.88l-6.89,14s14.69,4.37,20.66-4.13,6.66-10.78,6.66-10.78,11.93,2.06,14.23-3.91C654.87,1053.28,655.79,1050.75,655.79,1050.75Z"></path><path class="cls-19" d="M418.7,1298.17H148.79s-1.37-64.49,21.12-143.22c20.65-72.52,45.67-91.11,45.67-91.11s163.19-2.76,163.19,7.11C399.88,1125.8,418.7,1298.17,418.7,1298.17Z"></path><path class="cls-17" d="M343.65,821.93s50.49,3,58.07,90.66c6,71.14,16.52,97.08,16.52,97.08l125.55-8.95L539,1051s-147.35,39.71-157,5c-9.41-34.66-38.1-227.22-38.1-227.22"></path><path class="cls-17" d="M301,806.78s54.85,66.33,68.4,114.07c8.95,31.44-8.73,122.1-6.66,146,3.44,39.48,20.89,87.9,43.38,158.59l14.92-2.06-41.32-156.76s19.05-118.2,14-147.58c-5.05-29.61-49.11-96.85-49.11-96.85l-20-5.74Z"></path><path class="cls-20" d="M158,1225.64l92.73,8.27s13.08-144.83,14.23-178.8,0-94.1,0-94.1L159.12,1215.77Z"></path><path class="cls-17" d="M242.43,1224.5,133.19,1213l69.08-193.94c-.23-.69-6.66-18.59-16.3-54.62-4.82-18.14-9.18-21.58-13.31-38.79-6.2-24.56-10.79-45-11-51.64-1.14-20.89,28.69-54.17,28.69-54.17l36.5-3.21L247,801c16.07,26.17,19.28,79.18,17.45,139.78C261.94,1025.51,242.43,1224.5,242.43,1224.5Z"></path><path class="cls-20" d="M196.76,966.29a21.19,21.19,0,0,1-8,10.1c-4.82-18.13-9.87-37.18-14-54.39,11-13.55,20.42-24.79,20.42-24.79S208,937.37,196.76,966.29Z"></path><path class="cls-17" d="M193.55,819.86C160,817.57,107.71,935.31,86.13,991.77c-6.42,16.75,9,35.11,20.2,41.54,25.25,14.69,74.82,45.9,74.82,45.9l20.2-56.46L160.5,982.36,198.37,925s14.23-28.92,11.47-55.77S193.55,819.86,193.55,819.86Z"></path><path class="cls-17" d="M247,801.27c-9,7.12-27.08,16.53-27.08,16.53l17.22,44.75-14.92,24.1,41.08,88.13C279.39,847.17,247,801.27,247,801.27Z"></path><path class="cls-21" d="M247,801.27c-9,7.12-27.08,16.53-27.08,16.53l17.22,44.75-14.92,24.1,41.08,88.13C279.39,847.17,247,801.27,247,801.27Z"></path><path class="cls-20" d="M160.27,982.13s-17.67-2.76-28.69,6.65c0,0,11.93-19.28,33.74-14Z"></path><path class="cls-17" d="M370.73,974.55s9.18-27.08,7.58-52.1-2.07-43.6-2.07-43.6L348,858l3.67-25.48s-13.77-8.49-26.39-17c-8.72-6-29.61-13.54-31.9-12.85,0,0,76.2,90.43,76.65,127.84C370.27,966.52,370.73,974.55,370.73,974.55Z"></path><path class="cls-21" d="M370.73,974.55s9.18-27.08,7.58-52.1-2.07-43.6-2.07-43.6L348,858l3.67-25.48s-13.77-8.49-26.39-17c-8.72-6-29.61-13.54-31.9-12.85,0,0,76.2,90.43,76.65,127.84C370.27,966.52,370.73,974.55,370.73,974.55Z"></path><path class="cls-21" d="M382,1056.26l12.39-154L392.77,1070C392.77,1070.26,384,1065,382,1056.26Z"></path><polygon class="cls-20" points="197.22 1018.85 166.69 1070.26 180.92 1079.21 201.12 1022.75 197.22 1018.85"></polygon><g id="freepik--Floor--inject-2"><path class="cls-10" d="M1070.52,1299.78c0,.23-224.69.68-501.72.68s-501.94-.22-501.94-.68,224.69-.69,501.71-.69S1070.52,1299.55,1070.52,1299.78Z"></path></g><path class="cls-10" d="M260.8,1151.05c4.13-1.61,10.09-3.9,16.29-6.88s11.94-5.51,16.07-7.58a34.54,34.54,0,0,1,6.65-3,46.91,46.91,0,0,1-6.19,3.9,172,172,0,0,1-15.84,7.8c-6.43,2.76-12.16,5-16.53,6.43a35.53,35.53,0,0,1-7.11,2.06A58.72,58.72,0,0,1,260.8,1151.05Z"></path><path class="cls-14" d="M244.5,712c6.66,24.33,17.44,76,1.61,92,0,0,14.23,8.73,58.52,24.79,13.31-3.44,6.43-32.36,6.43-32.36-5.28-9.87-8-17.21-4.59-36Z"></path><path class="cls-8" d="M228.43,678.48a6,6,0,0,1-4.82.92c-4.36-1.15-7.8-7.12-8-13.08a15.4,15.4,0,0,1,1.84-8.5,7.33,7.33,0,0,1,5.51-4.82,3.47,3.47,0,0,1,3,.69,2.35,2.35,0,0,1,1.15,1.84c.23,1.38-.23,1.83-.46,1.83s0-.68-.46-1.6a2.66,2.66,0,0,0-3.21-1.38,6.37,6.37,0,0,0-3.91,4.13,15.35,15.35,0,0,0-1.37,7.81c.23,5.5,3,10.55,6.19,11.7a5.7,5.7,0,0,0,3.91,0l1.37-.69C229.58,677.1,229.35,677.79,228.43,678.48Z"></path><path class="cls-19" d="M261.48,693.86c-.46-.92-38.55-14.46-52.1-56.92-13.54-42.69-10.32-94.33,13.55-113.38,78.72-63.12,124.62-25.71,136.79-11.94,8.49,9.64,30.29,34.66,37.41,54.63,10.55,29.61.23,77.8-9.64,95.25S261.48,693.86,261.48,693.86Z"></path><path class="cls-14" d="M209.84,619.27c11.71,62,15.38,88.59,51,118.2,40.16,33.5,75.28,29.6,105.34-2.07,4.82-5,17-22.95,18.59-28,5-14.69,10.79-39.71,10.1-49.81-3.9-53.24-27.08-115.21-78.26-131.51-42-15.15-88.6,6.43-103.74,48.66A79.55,79.55,0,0,0,209.84,619.27Z"></path><g class="cls-13"><path d="M313.81,515.53A296.69,296.69,0,0,1,280.3,552c-11,10.1-27.08,25.24-43.37,16.75-.92-.46-1.84.92-.92,1.38,15.38,7.8,30.52-3.9,41.54-13.54a292.14,292.14,0,0,0,37.18-39.94.73.73,0,1,0-.92-1.14Z"></path></g><path class="cls-19" d="M292.24,550.41c5.28,160.89-58.53,118.2-41.08,188.43-24.1-36.72-37.42-81.25-44.07-125.08C203,592,198.6,570.61,204.79,549c7.35-21.11,29.84-41.08,51-42.91,7.8-.92,45,5.5,50.95,10.32C312.89,521,296.14,543.53,292.24,550.41Z"></path><path class="cls-19" d="M232.56,668.84l-23.64-68.17c.69-10.32-10.55-19.5-22.95-20-12.39-.69-24.55,5.74-31.21,14.69S146,615.13,147,625.46c1.37,17,9.87,33.28,21.8,46.82,6,6.89,13.08,13.32,22,17.22,9.18,3.9,20.43,4.82,29.84.92C229.81,686.28,236,676.87,232.56,668.84Z"></path><path class="cls-10" d="M371.19,641.07a6,6,0,0,0-6.42-5.74,6.37,6.37,0,0,0-6.2,6.43V642a6.13,6.13,0,0,0,6.42,5.74,6.91,6.91,0,0,0,6.2-6.66Z"></path><path class="cls-10" d="M371.42,618.81a17.11,17.11,0,0,0-9.87-3.45,18.63,18.63,0,0,0-10.33,3c-2.29,1.6-3,3-2.75,3.44.69.69,6-2.52,12.85-2.52s11.71,3.9,12.4,3C374.18,621.79,373.49,620.41,371.42,618.81Z"></path><path class="cls-10" d="M303.48,618.58a17.08,17.08,0,0,0-9.86-3.45,17.35,17.35,0,0,0-10.1,3c-2.3,1.6-3,3-2.76,3.44.69.69,6-2.52,12.86-2.52,6.88.23,11.7,3.9,12.39,3C306.24,621.79,305.55,620.18,303.48,618.58Z"></path><path class="cls-10" d="M341.35,673.89a13.11,13.11,0,0,0,3-.23,4.1,4.1,0,0,0,3-2.52,11.71,11.71,0,0,0-.69-6.89c-1.6-4.36-3.21-9-4.82-13.54-6.88-19.28-13.08-34.66-13.77-34.43s4.13,16.07,11,35.35c1.61,4.82,3.21,9.18,4.82,13.54a10.45,10.45,0,0,1,1.15,5.28c-.23,1.14-2.07,1.6-3.68,1.6-6.88.69-11.24,1.38-11.24,1.84C329.88,674.35,334.24,674.35,341.35,673.89Z"></path><path class="cls-10" d="M304.17,681a15.69,15.69,0,0,0,3.91,11.25,18.38,18.38,0,0,0,11,6.2c3.22.46,5.28-.23,5.28-.69.23-.92-7.8-1.61-13.08-7.8s-3.9-13.55-5.05-13.55C305.55,676,304.4,677.79,304.17,681Z"></path><path class="cls-10" d="M308.3,641.07a6.32,6.32,0,0,0-6.42-6,6.74,6.74,0,0,0-6.43,6.43v.23a6.13,6.13,0,0,0,6.43,5.74,6.42,6.42,0,0,0,6.42-6.43Z"></path><path class="cls-14" d="M212.6,622.25c-9.18,3.44-9.87,15.38-3.22,23.18,5.74,6.89,14,10.56,20.66,11"></path><path class="cls-19" d="M292.47,564.18s51.41,44.3,81.25,16.3c0,0-17.45-45.22-66.56-57.15C307.39,523.56,284.66,546.74,292.47,564.18Z"></path></svg>