<?xml version="1.0" encoding="utf-8"?>
<svg viewBox="41.4 2.9 83.21 37.2" xmlns="http://www.w3.org/2000/svg">
  <defs>
    <style type="text/css">	.st0{clip-path:url(#SVGID_2_);}	.st1{fill:#1F90FF;}</style>
  </defs>
  <g>
    <defs>
      <rect id="SVGID_1_" x="41.4" y="2.9" width="83.19" height="37.2"/>
    </defs>
    <clipPath id="SVGID_2_">
      <rect x="41.4" y="2.9" width="83.19" height="37.2" style="overflow: visible;"/>
    </clipPath>
    <g class="st0">
      <path class="st1" d="M60.72,16.96c-0.56,0.79-1.32,1.51-1.85,2.18c-0.65,0.82-1.22,1.77-1.33,2.82c-0.2,1.95,1.38,3.34,2.43,4.76   c0.69,0.93,1.52,1.68,1.52,2.92c0,0.03,0,0.24,0,0.64c0,0.4-0.3,0.89-0.88,1.49c-0.55,0.53-1.19,0.8-1.91,0.83h-0.15   c-0.79,0-1.47-0.29-2.06-0.87l-5.03-5.22l-5.03,5.22c-0.28,0.28-0.62,0.5-1.01,0.64c-0.39,0.14-0.77,0.21-1.14,0.21   c-0.8,0-1.48-0.29-2.04-0.86c-0.56-0.58-0.84-1.26-0.84-2.06V5.84c0-0.81,0.28-1.5,0.85-2.08c0.57-0.58,1.24-0.86,2.03-0.86   c0.8,0,1.48,0.29,2.04,0.86c0.56,0.58,0.84,1.27,0.84,2.08v16.63l9.32-9.67c0.6-0.58,1.29-0.87,2.06-0.87h0.06   c0.76,0,1.43,0.28,2.02,0.83c0.57,0.61,0.86,1.31,0.86,2.09c0,0,0,0.06,0,0.06C61.5,15.65,61.17,16.33,60.72,16.96z"/>
      <path class="st1" d="M110.52,29.66c0,0.8-0.28,1.48-0.84,2.06c-0.56,0.58-1.24,0.86-2.04,0.86c-0.8,0-1.48-0.29-2.04-0.86   c-0.56-0.58-0.84-1.26-0.84-2.06v-7.45c0-1.39,0.26-2.7,0.77-3.94c0.51-1.24,1.22-2.32,2.11-3.26c0.91-0.95,1.97-1.7,3.18-2.24   c1.21-0.54,2.5-0.81,3.87-0.81c1.36,0,2.64,0.27,3.85,0.81c1.21,0.54,2.27,1.28,3.18,2.24c0.9,0.94,1.6,2.02,2.12,3.26   c0.51,1.24,0.77,2.55,0.77,3.94v7.45c0,0.8-0.28,1.48-0.84,2.06c-0.56,0.58-1.24,0.86-2.04,0.86s-1.48-0.29-2.04-0.86   c-0.56-0.58-0.84-1.26-0.84-2.06v-7.45c0-1.24-0.42-2.29-1.26-3.15c-0.8-0.84-1.76-1.26-2.88-1.26c-1.14,0-2.1,0.42-2.9,1.26   c-0.84,0.87-1.26,1.92-1.26,3.15L110.52,29.66L110.52,29.66z"/>
      <path class="st1" d="M94.11,23.1l4.23-9.43c0.16-0.36,0.37-0.67,0.64-0.92c0.27-0.25,0.57-0.44,0.9-0.57s0.67-0.19,1.04-0.18   c0.36,0.01,0.72,0.09,1.08,0.25c0.36,0.16,0.66,0.38,0.91,0.65c0.25,0.27,0.44,0.58,0.57,0.92c0.13,0.34,0.19,0.7,0.19,1.07   c0,0.38-0.09,0.74-0.26,1.1l-6.73,14.43l-0.58,1.34c-0.67,1.44-1.3,2.67-1.89,3.7c-0.59,1.02-1.22,1.87-1.88,2.54   s-1.39,1.17-2.17,1.5c-0.78,0.33-1.7,0.53-2.76,0.58c-0.06,0.01-0.11,0.02-0.17,0.02c-0.06,0-0.11,0-0.17,0   c-0.39,0-0.75-0.06-1.09-0.2c-0.34-0.13-0.64-0.31-0.89-0.55c-0.25-0.24-0.45-0.52-0.6-0.84c-0.15-0.32-0.23-0.68-0.23-1.07   c0-0.4,0.08-0.77,0.23-1.1c0.15-0.33,0.35-0.62,0.6-0.87c0.25-0.24,0.55-0.44,0.89-0.57c0.34-0.14,0.71-0.21,1.09-0.21h0.11   c0.54-0.01,0.98-0.09,1.3-0.22c0.33-0.13,0.6-0.32,0.82-0.58c0.22-0.26,0.42-0.58,0.61-0.96c0.18-0.38,0.41-0.83,0.66-1.33   l0.71-1.82l-6.48-13.82c-0.17-0.36-0.26-0.73-0.27-1.1c-0.01-0.38,0.05-0.73,0.18-1.06c0.13-0.33,0.32-0.64,0.58-0.92   c0.26-0.28,0.56-0.5,0.9-0.66c0.36-0.16,0.72-0.24,1.08-0.25c0.36-0.01,0.71,0.05,1.04,0.18c0.33,0.13,0.63,0.32,0.9,0.57   c0.27,0.25,0.48,0.56,0.64,0.92L94.11,23.1z"/>
      <path class="st1" d="M82.38,18.38c-0.52-1.21-1.23-2.28-2.13-3.2c-0.91-0.92-1.97-1.64-3.17-2.16c-1.2-0.52-2.48-0.78-3.84-0.78   c-1.37,0-2.66,0.26-3.86,0.78c-1.2,0.52-2.25,1.24-3.17,2.16c-1.01,1.04-1.75,2.17-2.21,3.41c-0.46,1.24-0.69,2.57-0.69,4   c0,1.41,0.26,2.73,0.77,3.96c0.51,1.24,1.22,2.32,2.11,3.26c0.91,0.95,1.97,1.7,3.18,2.24c1.21,0.54,2.5,0.81,3.87,0.81   c1.36,0,2.64-0.27,3.85-0.81c1.21-0.54,2.26-1.28,3.18-2.24c1.01-1.06,1.74-2.23,2.2-3.48c0.46-1.26,0.68-2.61,0.68-4.06   C83.16,20.88,82.9,19.59,82.38,18.38z M73.24,27.59c-2.76,0-5-2.26-5-5.05s2.24-5.05,5-5.05s5,2.26,5,5.05S76,27.59,73.24,27.59z"/>
    </g>
  </g>
</svg>